<?xml version="1.0" encoding="utf-8" standalone="no"?>
<!DOCTYPE svg PUBLIC "-//W3C//DTD SVG 1.1//EN"
  "http://www.w3.org/Graphics/SVG/1.1/DTD/svg11.dtd">
<svg xmlns:xlink="http://www.w3.org/1999/xlink" width="293.8745pt" height="297.190125pt" viewBox="0 0 293.8745 297.190125" xmlns="http://www.w3.org/2000/svg" version="1.1">
 <metadata>
  <rdf:RDF xmlns:dc="http://purl.org/dc/elements/1.1/" xmlns:cc="http://creativecommons.org/ns#" xmlns:rdf="http://www.w3.org/1999/02/22-rdf-syntax-ns#">
   <cc:Work>
    <dc:type rdf:resource="http://purl.org/dc/dcmitype/StillImage"/>
    <dc:date>1980-01-01T00:00:00+00:00</dc:date>
    <dc:format>image/svg+xml</dc:format>
    <dc:creator>
     <cc:Agent>
      <dc:title>Matplotlib v3.10.5, https://matplotlib.org/</dc:title>
     </cc:Agent>
    </dc:creator>
   </cc:Work>
  </rdf:RDF>
 </metadata>
 <defs>
  <style type="text/css">*{stroke-linejoin: round; stroke-linecap: butt}</style>
 </defs>
 <g id="figure_1">
  <g id="patch_1">
   <path d="M 0 297.190125 
L 293.8745 297.190125 
L 293.8745 0 
L 0 0 
L 0 297.190125 
z
" style="fill: none"/>
  </g>
  <g id="axes_1">
   <g id="patch_2">
    <path d="M 20.5625 273.312 
L 286.6745 273.312 
L 286.6745 7.2 
L 20.5625 7.2 
L 20.5625 273.312 
z
" style="fill: none"/>
   </g>
   <g id="patch_3">
    <path d="M 20.5625 273.312 
L 53.8265 273.312 
L 53.8265 240.048 
L 20.5625 240.048 
z
" clip-path="url(#p78460f2521)" style="fill: #ffffff"/>
   </g>
   <g id="patch_4">
    <path d="M 20.5625 240.048 
L 53.8265 240.048 
L 53.8265 206.784 
L 20.5625 206.784 
z
" clip-path="url(#p78460f2521)"/>
   </g>
   <g id="patch_5">
    <path d="M 20.5625 206.784 
L 53.8265 206.784 
L 53.8265 173.52 
L 20.5625 173.52 
z
" clip-path="url(#p78460f2521)" style="fill: #ffffff"/>
   </g>
   <g id="patch_6">
    <path d="M 20.5625 173.52 
L 53.8265 173.52 
L 53.8265 140.256 
L 20.5625 140.256 
z
" clip-path="url(#p78460f2521)"/>
   </g>
   <g id="patch_7">
    <path d="M 20.5625 140.256 
L 53.8265 140.256 
L 53.8265 106.992 
L 20.5625 106.992 
z
" clip-path="url(#p78460f2521)" style="fill: #ffffff"/>
   </g>
   <g id="patch_8">
    <path d="M 20.5625 106.992 
L 53.8265 106.992 
L 53.8265 73.728 
L 20.5625 73.728 
z
" clip-path="url(#p78460f2521)"/>
   </g>
   <g id="patch_9">
    <path d="M 20.5625 73.728 
L 53.8265 73.728 
L 53.8265 40.464 
L 20.5625 40.464 
z
" clip-path="url(#p78460f2521)" style="fill: #ffffff"/>
   </g>
   <g id="patch_10">
    <path d="M 20.5625 40.464 
L 53.8265 40.464 
L 53.8265 7.2 
L 20.5625 7.2 
z
" clip-path="url(#p78460f2521)"/>
   </g>
   <g id="patch_11">
    <path d="M 53.8265 273.312 
L 87.0905 273.312 
L 87.0905 240.048 
L 53.8265 240.048 
z
" clip-path="url(#p78460f2521)"/>
   </g>
   <g id="patch_12">
    <path d="M 53.8265 240.048 
L 87.0905 240.048 
L 87.0905 206.784 
L 53.8265 206.784 
z
" clip-path="url(#p78460f2521)" style="fill: #ffffff"/>
   </g>
   <g id="patch_13">
    <path d="M 53.8265 206.784 
L 87.0905 206.784 
L 87.0905 173.52 
L 53.8265 173.52 
z
" clip-path="url(#p78460f2521)"/>
   </g>
   <g id="patch_14">
    <path d="M 53.8265 173.52 
L 87.0905 173.52 
L 87.0905 140.256 
L 53.8265 140.256 
z
" clip-path="url(#p78460f2521)" style="fill: #ffffff"/>
   </g>
   <g id="patch_15">
    <path d="M 53.8265 140.256 
L 87.0905 140.256 
L 87.0905 106.992 
L 53.8265 106.992 
z
" clip-path="url(#p78460f2521)"/>
   </g>
   <g id="patch_16">
    <path d="M 53.8265 106.992 
L 87.0905 106.992 
L 87.0905 73.728 
L 53.8265 73.728 
z
" clip-path="url(#p78460f2521)" style="fill: #ffffff"/>
   </g>
   <g id="patch_17">
    <path d="M 53.8265 73.728 
L 87.0905 73.728 
L 87.0905 40.464 
L 53.8265 40.464 
z
" clip-path="url(#p78460f2521)"/>
   </g>
   <g id="patch_18">
    <path d="M 53.8265 40.464 
L 87.0905 40.464 
L 87.0905 7.2 
L 53.8265 7.2 
z
" clip-path="url(#p78460f2521)" style="fill: #ffffff"/>
   </g>
   <g id="patch_19">
    <path d="M 87.0905 273.312 
L 120.3545 273.312 
L 120.3545 240.048 
L 87.0905 240.048 
z
" clip-path="url(#p78460f2521)" style="fill: #ffffff"/>
   </g>
   <g id="patch_20">
    <path d="M 87.0905 240.048 
L 120.3545 240.048 
L 120.3545 206.784 
L 87.0905 206.784 
z
" clip-path="url(#p78460f2521)"/>
   </g>
   <g id="patch_21">
    <path d="M 87.0905 206.784 
L 120.3545 206.784 
L 120.3545 173.52 
L 87.0905 173.52 
z
" clip-path="url(#p78460f2521)" style="fill: #ffffff"/>
   </g>
   <g id="patch_22">
    <path d="M 87.0905 173.52 
L 120.3545 173.52 
L 120.3545 140.256 
L 87.0905 140.256 
z
" clip-path="url(#p78460f2521)"/>
   </g>
   <g id="patch_23">
    <path d="M 87.0905 140.256 
L 120.3545 140.256 
L 120.3545 106.992 
L 87.0905 106.992 
z
" clip-path="url(#p78460f2521)" style="fill: #ffffff"/>
   </g>
   <g id="patch_24">
    <path d="M 87.0905 106.992 
L 120.3545 106.992 
L 120.3545 73.728 
L 87.0905 73.728 
z
" clip-path="url(#p78460f2521)"/>
   </g>
   <g id="patch_25">
    <path d="M 87.0905 73.728 
L 120.3545 73.728 
L 120.3545 40.464 
L 87.0905 40.464 
z
" clip-path="url(#p78460f2521)" style="fill: #ffffff"/>
   </g>
   <g id="patch_26">
    <path d="M 87.0905 40.464 
L 120.3545 40.464 
L 120.3545 7.2 
L 87.0905 7.2 
z
" clip-path="url(#p78460f2521)"/>
   </g>
   <g id="patch_27">
    <path d="M 120.3545 273.312 
L 153.6185 273.312 
L 153.6185 240.048 
L 120.3545 240.048 
z
" clip-path="url(#p78460f2521)"/>
   </g>
   <g id="patch_28">
    <path d="M 120.3545 240.048 
L 153.6185 240.048 
L 153.6185 206.784 
L 120.3545 206.784 
z
" clip-path="url(#p78460f2521)" style="fill: #ffffff"/>
   </g>
   <g id="patch_29">
    <path d="M 120.3545 206.784 
L 153.6185 206.784 
L 153.6185 173.52 
L 120.3545 173.52 
z
" clip-path="url(#p78460f2521)"/>
   </g>
   <g id="patch_30">
    <path d="M 120.3545 173.52 
L 153.6185 173.52 
L 153.6185 140.256 
L 120.3545 140.256 
z
" clip-path="url(#p78460f2521)" style="fill: #ffffff"/>
   </g>
   <g id="patch_31">
    <path d="M 120.3545 140.256 
L 153.6185 140.256 
L 153.6185 106.992 
L 120.3545 106.992 
z
" clip-path="url(#p78460f2521)"/>
   </g>
   <g id="patch_32">
    <path d="M 120.3545 106.992 
L 153.6185 106.992 
L 153.6185 73.728 
L 120.3545 73.728 
z
" clip-path="url(#p78460f2521)" style="fill: #ffffff"/>
   </g>
   <g id="patch_33">
    <path d="M 120.3545 73.728 
L 153.6185 73.728 
L 153.6185 40.464 
L 120.3545 40.464 
z
" clip-path="url(#p78460f2521)"/>
   </g>
   <g id="patch_34">
    <path d="M 120.3545 40.464 
L 153.6185 40.464 
L 153.6185 7.2 
L 120.3545 7.2 
z
" clip-path="url(#p78460f2521)" style="fill: #ffffff"/>
   </g>
   <g id="patch_35">
    <path d="M 153.6185 273.312 
L 186.8825 273.312 
L 186.8825 240.048 
L 153.6185 240.048 
z
" clip-path="url(#p78460f2521)" style="fill: #ffffff"/>
   </g>
   <g id="patch_36">
    <path d="M 153.6185 240.048 
L 186.8825 240.048 
L 186.8825 206.784 
L 153.6185 206.784 
z
" clip-path="url(#p78460f2521)"/>
   </g>
   <g id="patch_37">
    <path d="M 153.6185 206.784 
L 186.8825 206.784 
L 186.8825 173.52 
L 153.6185 173.52 
z
" clip-path="url(#p78460f2521)" style="fill: #ffffff"/>
   </g>
   <g id="patch_38">
    <path d="M 153.6185 173.52 
L 186.8825 173.52 
L 186.8825 140.256 
L 153.6185 140.256 
z
" clip-path="url(#p78460f2521)"/>
   </g>
   <g id="patch_39">
    <path d="M 153.6185 140.256 
L 186.8825 140.256 
L 186.8825 106.992 
L 153.6185 106.992 
z
" clip-path="url(#p78460f2521)" style="fill: #ffffff"/>
   </g>
   <g id="patch_40">
    <path d="M 153.6185 106.992 
L 186.8825 106.992 
L 186.8825 73.728 
L 153.6185 73.728 
z
" clip-path="url(#p78460f2521)"/>
   </g>
   <g id="patch_41">
    <path d="M 153.6185 73.728 
L 186.8825 73.728 
L 186.8825 40.464 
L 153.6185 40.464 
z
" clip-path="url(#p78460f2521)" style="fill: #ffffff"/>
   </g>
   <g id="patch_42">
    <path d="M 153.6185 40.464 
L 186.8825 40.464 
L 186.8825 7.2 
L 153.6185 7.2 
z
" clip-path="url(#p78460f2521)"/>
   </g>
   <g id="patch_43">
    <path d="M 186.8825 273.312 
L 220.1465 273.312 
L 220.1465 240.048 
L 186.8825 240.048 
z
" clip-path="url(#p78460f2521)"/>
   </g>
   <g id="patch_44">
    <path d="M 186.8825 240.048 
L 220.1465 240.048 
L 220.1465 206.784 
L 186.8825 206.784 
z
" clip-path="url(#p78460f2521)" style="fill: #ffffff"/>
   </g>
   <g id="patch_45">
    <path d="M 186.8825 206.784 
L 220.1465 206.784 
L 220.1465 173.52 
L 186.8825 173.52 
z
" clip-path="url(#p78460f2521)"/>
   </g>
   <g id="patch_46">
    <path d="M 186.8825 173.52 
L 220.1465 173.52 
L 220.1465 140.256 
L 186.8825 140.256 
z
" clip-path="url(#p78460f2521)" style="fill: #ffffff"/>
   </g>
   <g id="patch_47">
    <path d="M 186.8825 140.256 
L 220.1465 140.256 
L 220.1465 106.992 
L 186.8825 106.992 
z
" clip-path="url(#p78460f2521)"/>
   </g>
   <g id="patch_48">
    <path d="M 186.8825 106.992 
L 220.1465 106.992 
L 220.1465 73.728 
L 186.8825 73.728 
z
" clip-path="url(#p78460f2521)" style="fill: #ffffff"/>
   </g>
   <g id="patch_49">
    <path d="M 186.8825 73.728 
L 220.1465 73.728 
L 220.1465 40.464 
L 186.8825 40.464 
z
" clip-path="url(#p78460f2521)"/>
   </g>
   <g id="patch_50">
    <path d="M 186.8825 40.464 
L 220.1465 40.464 
L 220.1465 7.2 
L 186.8825 7.2 
z
" clip-path="url(#p78460f2521)" style="fill: #ffffff"/>
   </g>
   <g id="patch_51">
    <path d="M 220.1465 273.312 
L 253.4105 273.312 
L 253.4105 240.048 
L 220.1465 240.048 
z
" clip-path="url(#p78460f2521)" style="fill: #ffffff"/>
   </g>
   <g id="patch_52">
    <path d="M 220.1465 240.048 
L 253.4105 240.048 
L 253.4105 206.784 
L 220.1465 206.784 
z
" clip-path="url(#p78460f2521)"/>
   </g>
   <g id="patch_53">
    <path d="M 220.1465 206.784 
L 253.4105 206.784 
L 253.4105 173.52 
L 220.1465 173.52 
z
" clip-path="url(#p78460f2521)" style="fill: #ffffff"/>
   </g>
   <g id="patch_54">
    <path d="M 220.1465 173.52 
L 253.4105 173.52 
L 253.4105 140.256 
L 220.1465 140.256 
z
" clip-path="url(#p78460f2521)"/>
   </g>
   <g id="patch_55">
    <path d="M 220.1465 140.256 
L 253.4105 140.256 
L 253.4105 106.992 
L 220.1465 106.992 
z
" clip-path="url(#p78460f2521)" style="fill: #ffffff"/>
   </g>
   <g id="patch_56">
    <path d="M 220.1465 106.992 
L 253.4105 106.992 
L 253.4105 73.728 
L 220.1465 73.728 
z
" clip-path="url(#p78460f2521)"/>
   </g>
   <g id="patch_57">
    <path d="M 220.1465 73.728 
L 253.4105 73.728 
L 253.4105 40.464 
L 220.1465 40.464 
z
" clip-path="url(#p78460f2521)" style="fill: #ffffff"/>
   </g>
   <g id="patch_58">
    <path d="M 220.1465 40.464 
L 253.4105 40.464 
L 253.4105 7.2 
L 220.1465 7.2 
z
" clip-path="url(#p78460f2521)"/>
   </g>
   <g id="patch_59">
    <path d="M 253.4105 273.312 
L 286.6745 273.312 
L 286.6745 240.048 
L 253.4105 240.048 
z
" clip-path="url(#p78460f2521)"/>
   </g>
   <g id="patch_60">
    <path d="M 253.4105 240.048 
L 286.6745 240.048 
L 286.6745 206.784 
L 253.4105 206.784 
z
" clip-path="url(#p78460f2521)" style="fill: #ffffff"/>
   </g>
   <g id="patch_61">
    <path d="M 253.4105 206.784 
L 286.6745 206.784 
L 286.6745 173.52 
L 253.4105 173.52 
z
" clip-path="url(#p78460f2521)"/>
   </g>
   <g id="patch_62">
    <path d="M 253.4105 173.52 
L 286.6745 173.52 
L 286.6745 140.256 
L 253.4105 140.256 
z
" clip-path="url(#p78460f2521)" style="fill: #ffffff"/>
   </g>
   <g id="patch_63">
    <path d="M 253.4105 140.256 
L 286.6745 140.256 
L 286.6745 106.992 
L 253.4105 106.992 
z
" clip-path="url(#p78460f2521)"/>
   </g>
   <g id="patch_64">
    <path d="M 253.4105 106.992 
L 286.6745 106.992 
L 286.6745 73.728 
L 253.4105 73.728 
z
" clip-path="url(#p78460f2521)" style="fill: #ffffff"/>
   </g>
   <g id="patch_65">
    <path d="M 253.4105 73.728 
L 286.6745 73.728 
L 286.6745 40.464 
L 253.4105 40.464 
z
" clip-path="url(#p78460f2521)"/>
   </g>
   <g id="patch_66">
    <path d="M 253.4105 40.464 
L 286.6745 40.464 
L 286.6745 7.2 
L 253.4105 7.2 
z
" clip-path="url(#p78460f2521)" style="fill: #ffffff"/>
   </g>
   <g id="matplotlib.axis_1">
    <g id="xtick_1">
     <g id="line2d_1">
      <defs>
       <path id="m90d63332da" d="M 0 0 
L 0 3.5 
" style="stroke: #000000; stroke-width: 0.8"/>
      </defs>
      <g>
       <use xlink:href="#m90d63332da" x="37.1945" y="273.312" style="stroke: #000000; stroke-width: 0.8"/>
      </g>
     </g>
     <g id="text_1">
      <!-- 1 -->
      <g transform="translate(34.01325 287.910437) scale(0.1 -0.1)">
       <defs>
        <path id="DejaVuSans-31" d="M 794 531 
L 1825 531 
L 1825 4091 
L 703 3866 
L 703 4441 
L 1819 4666 
L 2450 4666 
L 2450 531 
L 3481 531 
L 3481 0 
L 794 0 
L 794 531 
z
" transform="scale(0.015625)"/>
       </defs>
       <use xlink:href="#DejaVuSans-31"/>
      </g>
     </g>
    </g>
    <g id="xtick_2">
     <g id="line2d_2">
      <g>
       <use xlink:href="#m90d63332da" x="70.4585" y="273.312" style="stroke: #000000; stroke-width: 0.8"/>
      </g>
     </g>
     <g id="text_2">
      <!-- 2 -->
      <g transform="translate(67.27725 287.910437) scale(0.1 -0.1)">
       <defs>
        <path id="DejaVuSans-32" d="M 1228 531 
L 3431 531 
L 3431 0 
L 469 0 
L 469 531 
Q 828 903 1448 1529 
Q 2069 2156 2228 2338 
Q 2531 2678 2651 2914 
Q 2772 3150 2772 3378 
Q 2772 3750 2511 3984 
Q 2250 4219 1831 4219 
Q 1534 4219 1204 4116 
Q 875 4013 500 3803 
L 500 4441 
Q 881 4594 1212 4672 
Q 1544 4750 1819 4750 
Q 2544 4750 2975 4387 
Q 3406 4025 3406 3419 
Q 3406 3131 3298 2873 
Q 3191 2616 2906 2266 
Q 2828 2175 2409 1742 
Q 1991 1309 1228 531 
z
" transform="scale(0.015625)"/>
       </defs>
       <use xlink:href="#DejaVuSans-32"/>
      </g>
     </g>
    </g>
    <g id="xtick_3">
     <g id="line2d_3">
      <g>
       <use xlink:href="#m90d63332da" x="103.7225" y="273.312" style="stroke: #000000; stroke-width: 0.8"/>
      </g>
     </g>
     <g id="text_3">
      <!-- 3 -->
      <g transform="translate(100.54125 287.910437) scale(0.1 -0.1)">
       <defs>
        <path id="DejaVuSans-33" d="M 2597 2516 
Q 3050 2419 3304 2112 
Q 3559 1806 3559 1356 
Q 3559 666 3084 287 
Q 2609 -91 1734 -91 
Q 1441 -91 1130 -33 
Q 819 25 488 141 
L 488 750 
Q 750 597 1062 519 
Q 1375 441 1716 441 
Q 2309 441 2620 675 
Q 2931 909 2931 1356 
Q 2931 1769 2642 2001 
Q 2353 2234 1838 2234 
L 1294 2234 
L 1294 2753 
L 1863 2753 
Q 2328 2753 2575 2939 
Q 2822 3125 2822 3475 
Q 2822 3834 2567 4026 
Q 2313 4219 1838 4219 
Q 1578 4219 1281 4162 
Q 984 4106 628 3988 
L 628 4550 
Q 988 4650 1302 4700 
Q 1616 4750 1894 4750 
Q 2613 4750 3031 4423 
Q 3450 4097 3450 3541 
Q 3450 3153 3228 2886 
Q 3006 2619 2597 2516 
z
" transform="scale(0.015625)"/>
       </defs>
       <use xlink:href="#DejaVuSans-33"/>
      </g>
     </g>
    </g>
    <g id="xtick_4">
     <g id="line2d_4">
      <g>
       <use xlink:href="#m90d63332da" x="136.9865" y="273.312" style="stroke: #000000; stroke-width: 0.8"/>
      </g>
     </g>
     <g id="text_4">
      <!-- 4 -->
      <g transform="translate(133.80525 287.910437) scale(0.1 -0.1)">
       <defs>
        <path id="DejaVuSans-34" d="M 2419 4116 
L 825 1625 
L 2419 1625 
L 2419 4116 
z
M 2253 4666 
L 3047 4666 
L 3047 1625 
L 3713 1625 
L 3713 1100 
L 3047 1100 
L 3047 0 
L 2419 0 
L 2419 1100 
L 313 1100 
L 313 1709 
L 2253 4666 
z
" transform="scale(0.015625)"/>
       </defs>
       <use xlink:href="#DejaVuSans-34"/>
      </g>
     </g>
    </g>
    <g id="xtick_5">
     <g id="line2d_5">
      <g>
       <use xlink:href="#m90d63332da" x="170.2505" y="273.312" style="stroke: #000000; stroke-width: 0.8"/>
      </g>
     </g>
     <g id="text_5">
      <!-- 5 -->
      <g transform="translate(167.06925 287.910437) scale(0.1 -0.1)">
       <defs>
        <path id="DejaVuSans-35" d="M 691 4666 
L 3169 4666 
L 3169 4134 
L 1269 4134 
L 1269 2991 
Q 1406 3038 1543 3061 
Q 1681 3084 1819 3084 
Q 2600 3084 3056 2656 
Q 3513 2228 3513 1497 
Q 3513 744 3044 326 
Q 2575 -91 1722 -91 
Q 1428 -91 1123 -41 
Q 819 9 494 109 
L 494 744 
Q 775 591 1075 516 
Q 1375 441 1709 441 
Q 2250 441 2565 725 
Q 2881 1009 2881 1497 
Q 2881 1984 2565 2268 
Q 2250 2553 1709 2553 
Q 1456 2553 1204 2497 
Q 953 2441 691 2322 
L 691 4666 
z
" transform="scale(0.015625)"/>
       </defs>
       <use xlink:href="#DejaVuSans-35"/>
      </g>
     </g>
    </g>
    <g id="xtick_6">
     <g id="line2d_6">
      <g>
       <use xlink:href="#m90d63332da" x="203.5145" y="273.312" style="stroke: #000000; stroke-width: 0.8"/>
      </g>
     </g>
     <g id="text_6">
      <!-- 6 -->
      <g transform="translate(200.33325 287.910437) scale(0.1 -0.1)">
       <defs>
        <path id="DejaVuSans-36" d="M 2113 2584 
Q 1688 2584 1439 2293 
Q 1191 2003 1191 1497 
Q 1191 994 1439 701 
Q 1688 409 2113 409 
Q 2538 409 2786 701 
Q 3034 994 3034 1497 
Q 3034 2003 2786 2293 
Q 2538 2584 2113 2584 
z
M 3366 4563 
L 3366 3988 
Q 3128 4100 2886 4159 
Q 2644 4219 2406 4219 
Q 1781 4219 1451 3797 
Q 1122 3375 1075 2522 
Q 1259 2794 1537 2939 
Q 1816 3084 2150 3084 
Q 2853 3084 3261 2657 
Q 3669 2231 3669 1497 
Q 3669 778 3244 343 
Q 2819 -91 2113 -91 
Q 1303 -91 875 529 
Q 447 1150 447 2328 
Q 447 3434 972 4092 
Q 1497 4750 2381 4750 
Q 2619 4750 2861 4703 
Q 3103 4656 3366 4563 
z
" transform="scale(0.015625)"/>
       </defs>
       <use xlink:href="#DejaVuSans-36"/>
      </g>
     </g>
    </g>
    <g id="xtick_7">
     <g id="line2d_7">
      <g>
       <use xlink:href="#m90d63332da" x="236.7785" y="273.312" style="stroke: #000000; stroke-width: 0.8"/>
      </g>
     </g>
     <g id="text_7">
      <!-- 7 -->
      <g transform="translate(233.59725 287.910437) scale(0.1 -0.1)">
       <defs>
        <path id="DejaVuSans-37" d="M 525 4666 
L 3525 4666 
L 3525 4397 
L 1831 0 
L 1172 0 
L 2766 4134 
L 525 4134 
L 525 4666 
z
" transform="scale(0.015625)"/>
       </defs>
       <use xlink:href="#DejaVuSans-37"/>
      </g>
     </g>
    </g>
    <g id="xtick_8">
     <g id="line2d_8">
      <g>
       <use xlink:href="#m90d63332da" x="270.0425" y="273.312" style="stroke: #000000; stroke-width: 0.8"/>
      </g>
     </g>
     <g id="text_8">
      <!-- 8 -->
      <g transform="translate(266.86125 287.910437) scale(0.1 -0.1)">
       <defs>
        <path id="DejaVuSans-38" d="M 2034 2216 
Q 1584 2216 1326 1975 
Q 1069 1734 1069 1313 
Q 1069 891 1326 650 
Q 1584 409 2034 409 
Q 2484 409 2743 651 
Q 3003 894 3003 1313 
Q 3003 1734 2745 1975 
Q 2488 2216 2034 2216 
z
M 1403 2484 
Q 997 2584 770 2862 
Q 544 3141 544 3541 
Q 544 4100 942 4425 
Q 1341 4750 2034 4750 
Q 2731 4750 3128 4425 
Q 3525 4100 3525 3541 
Q 3525 3141 3298 2862 
Q 3072 2584 2669 2484 
Q 3125 2378 3379 2068 
Q 3634 1759 3634 1313 
Q 3634 634 3220 271 
Q 2806 -91 2034 -91 
Q 1263 -91 848 271 
Q 434 634 434 1313 
Q 434 1759 690 2068 
Q 947 2378 1403 2484 
z
M 1172 3481 
Q 1172 3119 1398 2916 
Q 1625 2713 2034 2713 
Q 2441 2713 2670 2916 
Q 2900 3119 2900 3481 
Q 2900 3844 2670 4047 
Q 2441 4250 2034 4250 
Q 1625 4250 1398 4047 
Q 1172 3844 1172 3481 
z
" transform="scale(0.015625)"/>
       </defs>
       <use xlink:href="#DejaVuSans-38"/>
      </g>
     </g>
    </g>
   </g>
   <g id="matplotlib.axis_2">
    <g id="ytick_1">
     <g id="line2d_9">
      <defs>
       <path id="mbd28a83f32" d="M 0 0 
L -3.5 0 
" style="stroke: #000000; stroke-width: 0.8"/>
      </defs>
      <g>
       <use xlink:href="#mbd28a83f32" x="20.5625" y="256.68" style="stroke: #000000; stroke-width: 0.8"/>
      </g>
     </g>
     <g id="text_9">
      <!-- 1 -->
      <g transform="translate(7.2 260.479219) scale(0.1 -0.1)">
       <use xlink:href="#DejaVuSans-31"/>
      </g>
     </g>
    </g>
    <g id="ytick_2">
     <g id="line2d_10">
      <g>
       <use xlink:href="#mbd28a83f32" x="20.5625" y="223.416" style="stroke: #000000; stroke-width: 0.8"/>
      </g>
     </g>
     <g id="text_10">
      <!-- 2 -->
      <g transform="translate(7.2 227.215219) scale(0.1 -0.1)">
       <use xlink:href="#DejaVuSans-32"/>
      </g>
     </g>
    </g>
    <g id="ytick_3">
     <g id="line2d_11">
      <g>
       <use xlink:href="#mbd28a83f32" x="20.5625" y="190.152" style="stroke: #000000; stroke-width: 0.8"/>
      </g>
     </g>
     <g id="text_11">
      <!-- 3 -->
      <g transform="translate(7.2 193.951219) scale(0.1 -0.1)">
       <use xlink:href="#DejaVuSans-33"/>
      </g>
     </g>
    </g>
    <g id="ytick_4">
     <g id="line2d_12">
      <g>
       <use xlink:href="#mbd28a83f32" x="20.5625" y="156.888" style="stroke: #000000; stroke-width: 0.8"/>
      </g>
     </g>
     <g id="text_12">
      <!-- 4 -->
      <g transform="translate(7.2 160.687219) scale(0.1 -0.1)">
       <use xlink:href="#DejaVuSans-34"/>
      </g>
     </g>
    </g>
    <g id="ytick_5">
     <g id="line2d_13">
      <g>
       <use xlink:href="#mbd28a83f32" x="20.5625" y="123.624" style="stroke: #000000; stroke-width: 0.8"/>
      </g>
     </g>
     <g id="text_13">
      <!-- 5 -->
      <g transform="translate(7.2 127.423219) scale(0.1 -0.1)">
       <use xlink:href="#DejaVuSans-35"/>
      </g>
     </g>
    </g>
    <g id="ytick_6">
     <g id="line2d_14">
      <g>
       <use xlink:href="#mbd28a83f32" x="20.5625" y="90.36" style="stroke: #000000; stroke-width: 0.8"/>
      </g>
     </g>
     <g id="text_14">
      <!-- 6 -->
      <g transform="translate(7.2 94.159219) scale(0.1 -0.1)">
       <use xlink:href="#DejaVuSans-36"/>
      </g>
     </g>
    </g>
    <g id="ytick_7">
     <g id="line2d_15">
      <g>
       <use xlink:href="#mbd28a83f32" x="20.5625" y="57.096" style="stroke: #000000; stroke-width: 0.8"/>
      </g>
     </g>
     <g id="text_15">
      <!-- 7 -->
      <g transform="translate(7.2 60.895219) scale(0.1 -0.1)">
       <use xlink:href="#DejaVuSans-37"/>
      </g>
     </g>
    </g>
    <g id="ytick_8">
     <g id="line2d_16">
      <g>
       <use xlink:href="#mbd28a83f32" x="20.5625" y="23.832" style="stroke: #000000; stroke-width: 0.8"/>
      </g>
     </g>
     <g id="text_16">
      <!-- 8 -->
      <g transform="translate(7.2 27.631219) scale(0.1 -0.1)">
       <use xlink:href="#DejaVuSans-38"/>
      </g>
     </g>
    </g>
   </g>
   <g id="patch_67">
    <path d="M 20.5625 273.312 
L 20.5625 7.2 
" style="fill: none; stroke: #000000; stroke-width: 0.8; stroke-linejoin: miter; stroke-linecap: square"/>
   </g>
   <g id="patch_68">
    <path d="M 286.6745 273.312 
L 286.6745 7.2 
" style="fill: none; stroke: #000000; stroke-width: 0.8; stroke-linejoin: miter; stroke-linecap: square"/>
   </g>
   <g id="patch_69">
    <path d="M 20.5625 273.312 
L 286.6745 273.312 
" style="fill: none; stroke: #000000; stroke-width: 0.8; stroke-linejoin: miter; stroke-linecap: square"/>
   </g>
   <g id="patch_70">
    <path d="M 20.5625 7.2 
L 286.6745 7.2 
" style="fill: none; stroke: #000000; stroke-width: 0.8; stroke-linejoin: miter; stroke-linecap: square"/>
   </g>
  </g>
 </g>
 <defs>
  <clipPath id="p78460f2521">
   <rect x="20.5625" y="7.2" width="266.112" height="266.112"/>
  </clipPath>
 </defs>
</svg>
