<?xml version="1.0" encoding="utf-8" standalone="no"?>
<!DOCTYPE svg PUBLIC "-//W3C//DTD SVG 1.1//EN"
  "http://www.w3.org/Graphics/SVG/1.1/DTD/svg11.dtd">
<svg xmlns:xlink="http://www.w3.org/1999/xlink" width="460.8pt" height="457.92pt" viewBox="0 0 460.8 457.92" xmlns="http://www.w3.org/2000/svg" version="1.1">
 <metadata>
  <rdf:RDF xmlns:dc="http://purl.org/dc/elements/1.1/" xmlns:cc="http://creativecommons.org/ns#" xmlns:rdf="http://www.w3.org/1999/02/22-rdf-syntax-ns#">
   <cc:Work>
    <dc:type rdf:resource="http://purl.org/dc/dcmitype/StillImage"/>
    <dc:date>1980-01-01T00:00:00+00:00</dc:date>
    <dc:format>image/svg+xml</dc:format>
    <dc:creator>
     <cc:Agent>
      <dc:title>Matplotlib v3.10.5, https://matplotlib.org/</dc:title>
     </cc:Agent>
    </dc:creator>
   </cc:Work>
  </rdf:RDF>
 </metadata>
 <defs>
  <style type="text/css">*{stroke-linejoin: round; stroke-linecap: butt}</style>
 </defs>
 <g id="figure_1">
  <g id="patch_1">
   <path d="M 0 457.92 
L 460.8 457.92 
L 460.8 0 
L 0 0 
L 0 457.92 
z
" style="fill: none"/>
  </g>
  <g id="axes_1">
   <g id="PathCollection_1">
    <defs>
     <path id="m0a20e92040" d="M 0 7.071068 
C 1.875269 7.071068 3.673985 6.326016 5 5 
C 6.326016 3.673985 7.071068 1.875269 7.071068 0 
C 7.071068 -1.875269 6.326016 -3.673985 5 -5 
C 3.673985 -6.326016 1.875269 -7.071068 0 -7.071068 
C -1.875269 -7.071068 -3.673985 -6.326016 -5 -5 
C -6.326016 -3.673985 -7.071068 -1.875269 -7.071068 0 
C -7.071068 1.875269 -6.326016 3.673985 -5 5 
C -3.673985 6.326016 -1.875269 7.071068 0 7.071068 
z
" style="stroke: #008000"/>
    </defs>
    <g clip-path="url(#pa7062311b0)">
     <use xlink:href="#m0a20e92040" x="331.854545" y="228.96" style="fill: #008000; stroke: #008000"/>
     <use xlink:href="#m0a20e92040" x="261.751179" y="132.470993" style="fill: #008000; stroke: #008000"/>
     <use xlink:href="#m0a20e92040" x="148.321549" y="169.326514" style="fill: #008000; stroke: #008000"/>
     <use xlink:href="#m0a20e92040" x="148.321549" y="288.593486" style="fill: #008000; stroke: #008000"/>
     <use xlink:href="#m0a20e92040" x="261.751179" y="325.449007" style="fill: #008000; stroke: #008000"/>
    </g>
   </g>
   <g id="PathCollection_2">
    <defs>
     <path id="mc9bd6be115" d="M 0 5 
C 1.326016 5 2.597899 4.473168 3.535534 3.535534 
C 4.473168 2.597899 5 1.326016 5 0 
C 5 -1.326016 4.473168 -2.597899 3.535534 -3.535534 
C 2.597899 -4.473168 1.326016 -5 0 -5 
C -1.326016 -5 -2.597899 -4.473168 -3.535534 -3.535534 
C -4.473168 -2.597899 -5 -1.326016 -5 0 
C -5 1.326016 -4.473168 2.597899 -3.535534 3.535534 
C -2.597899 4.473168 -1.326016 5 0 5 
z
" style="stroke: #ff0000"/>
    </defs>
    <g clip-path="url(#pa7062311b0)">
     <use xlink:href="#mc9bd6be115" x="433.309091" y="228.96" style="fill: #ff0000; stroke: #ff0000"/>
     <use xlink:href="#mc9bd6be115" x="423.378013" y="166.257643" style="fill: #ff0000; stroke: #ff0000"/>
     <use xlink:href="#mc9bd6be115" x="394.556903" y="109.693029" style="fill: #ff0000; stroke: #ff0000"/>
     <use xlink:href="#mc9bd6be115" x="349.666971" y="64.803097" style="fill: #ff0000; stroke: #ff0000"/>
     <use xlink:href="#mc9bd6be115" x="293.102357" y="35.981987" style="fill: #ff0000; stroke: #ff0000"/>
     <use xlink:href="#mc9bd6be115" x="230.4" y="26.050909" style="fill: #ff0000; stroke: #ff0000"/>
     <use xlink:href="#mc9bd6be115" x="167.697643" y="35.981987" style="fill: #ff0000; stroke: #ff0000"/>
     <use xlink:href="#mc9bd6be115" x="111.133029" y="64.803097" style="fill: #ff0000; stroke: #ff0000"/>
     <use xlink:href="#mc9bd6be115" x="66.243097" y="109.693029" style="fill: #ff0000; stroke: #ff0000"/>
     <use xlink:href="#mc9bd6be115" x="37.421987" y="166.257643" style="fill: #ff0000; stroke: #ff0000"/>
     <use xlink:href="#mc9bd6be115" x="27.490909" y="228.96" style="fill: #ff0000; stroke: #ff0000"/>
     <use xlink:href="#mc9bd6be115" x="37.421987" y="291.662357" style="fill: #ff0000; stroke: #ff0000"/>
     <use xlink:href="#mc9bd6be115" x="66.243097" y="348.226971" style="fill: #ff0000; stroke: #ff0000"/>
     <use xlink:href="#mc9bd6be115" x="111.133029" y="393.116903" style="fill: #ff0000; stroke: #ff0000"/>
     <use xlink:href="#mc9bd6be115" x="167.697643" y="421.938013" style="fill: #ff0000; stroke: #ff0000"/>
     <use xlink:href="#mc9bd6be115" x="230.4" y="431.869091" style="fill: #ff0000; stroke: #ff0000"/>
     <use xlink:href="#mc9bd6be115" x="293.102357" y="421.938013" style="fill: #ff0000; stroke: #ff0000"/>
     <use xlink:href="#mc9bd6be115" x="349.666971" y="393.116903" style="fill: #ff0000; stroke: #ff0000"/>
     <use xlink:href="#mc9bd6be115" x="394.556903" y="348.226971" style="fill: #ff0000; stroke: #ff0000"/>
     <use xlink:href="#mc9bd6be115" x="423.378013" y="291.662357" style="fill: #ff0000; stroke: #ff0000"/>
    </g>
   </g>
   <g id="patch_2">
    <path d="M 333.85156 228.96 
Q 382.580226 228.96 430.190858 228.96 
" clip-path="url(#pa7062311b0)" style="fill: none; stroke: #000000; stroke-linecap: round"/>
    <path d="M 426.190858 226.96 
L 430.190858 228.96 
L 426.190858 230.96 
" clip-path="url(#pa7062311b0)" style="fill: none; stroke: #000000; stroke-linecap: round"/>
   </g>
   <g id="patch_3">
    <path d="M 333.505253 227.829107 
Q 377.617452 197.608018 420.80731 168.018821 
" clip-path="url(#pa7062311b0)" style="fill: none; stroke: #000000; stroke-linecap: round"/>
    <path d="M 416.377081 168.629613 
L 420.80731 168.018821 
L 418.637806 171.92948 
" clip-path="url(#pa7062311b0)" style="fill: none; stroke: #000000; stroke-linecap: round"/>
   </g>
   <g id="patch_4">
    <path d="M 332.786432 227.187447 
Q 363.206994 169.324099 393.107289 112.450359 
" clip-path="url(#pa7062311b0)" style="fill: none; stroke: #000000; stroke-linecap: round"/>
    <path d="M 389.475661 115.060202 
L 393.107289 112.450359 
L 393.016187 116.921567 
" clip-path="url(#pa7062311b0)" style="fill: none; stroke: #000000; stroke-linecap: round"/>
   </g>
   <g id="patch_5">
    <path d="M 332.07008 226.973665 
Q 340.760854 146.880666 349.33102 67.899177 
" clip-path="url(#pa7062311b0)" style="fill: none; stroke: #000000; stroke-linecap: round"/>
    <path d="M 346.91119 71.660084 
L 349.33102 67.899177 
L 350.887848 72.091585 
" clip-path="url(#pa7062311b0)" style="fill: none; stroke: #000000; stroke-linecap: round"/>
   </g>
   <g id="patch_6">
    <path d="M 262.36829 130.571719 
Q 277.426276 84.228004 292.13877 38.947602 
" clip-path="url(#pa7062311b0)" style="fill: none; stroke: #000000; stroke-linecap: round"/>
    <path d="M 289.000589 42.133795 
L 292.13877 38.947602 
L 292.804816 43.369862 
" clip-path="url(#pa7062311b0)" style="fill: none; stroke: #000000; stroke-linecap: round"/>
   </g>
   <g id="patch_7">
    <path d="M 261.185732 130.551613 
Q 246.075188 79.259588 231.280589 29.040027 
" clip-path="url(#pa7062311b0)" style="fill: none; stroke: #000000; stroke-linecap: round"/>
    <path d="M 230.492471 33.442171 
L 231.280589 29.040027 
L 234.329433 32.311808 
" clip-path="url(#pa7062311b0)" style="fill: none; stroke: #000000; stroke-linecap: round"/>
   </g>
   <g id="patch_8">
    <path d="M 260.353349 131.036968 
Q 214.722506 84.224536 169.872064 38.212714 
" clip-path="url(#pa7062311b0)" style="fill: none; stroke: #000000; stroke-linecap: round"/>
    <path d="M 171.231938 42.473083 
L 169.872064 38.212714 
L 174.096283 39.681036 
" clip-path="url(#pa7062311b0)" style="fill: none; stroke: #000000; stroke-linecap: round"/>
   </g>
   <g id="patch_9">
    <path d="M 259.928666 131.652197 
Q 186.441294 98.636682 113.973761 66.079347 
" clip-path="url(#pa7062311b0)" style="fill: none; stroke: #000000; stroke-linecap: round"/>
    <path d="M 116.802828 69.542926 
L 113.973761 66.079347 
L 118.442065 65.894241 
" clip-path="url(#pa7062311b0)" style="fill: none; stroke: #000000; stroke-linecap: round"/>
   </g>
   <g id="patch_10">
    <path d="M 146.70593 168.152699 
Q 107.283611 139.510707 68.7658 111.52588 
" clip-path="url(#pa7062311b0)" style="fill: none; stroke: #000000; stroke-linecap: round"/>
    <path d="M 70.826298 115.495055 
L 68.7658 111.52588 
L 73.177439 112.258987 
" clip-path="url(#pa7062311b0)" style="fill: none; stroke: #000000; stroke-linecap: round"/>
   </g>
   <g id="patch_11">
    <path d="M 146.321376 169.271165 
Q 92.870347 167.792039 40.536924 166.343841 
" clip-path="url(#pa7062311b0)" style="fill: none; stroke: #000000; stroke-linecap: round"/>
    <path d="M 44.480069 168.453723 
L 40.536924 166.343841 
L 44.590717 164.455254 
" clip-path="url(#pa7062311b0)" style="fill: none; stroke: #000000; stroke-linecap: round"/>
   </g>
   <g id="patch_12">
    <path d="M 146.525756 170.212791 
Q 87.903782 199.144465 30.28439 227.581335 
" clip-path="url(#pa7062311b0)" style="fill: none; stroke: #000000; stroke-linecap: round"/>
    <path d="M 34.756465 227.604544 
L 30.28439 227.581335 
L 32.986202 224.0176 
" clip-path="url(#pa7062311b0)" style="fill: none; stroke: #000000; stroke-linecap: round"/>
   </g>
   <g id="patch_13">
    <path d="M 146.97964 170.806805 
Q 92.871172 230.495093 39.513607 289.355043 
" clip-path="url(#pa7062311b0)" style="fill: none; stroke: #000000; stroke-linecap: round"/>
    <path d="M 43.681897 287.734746 
L 39.513607 289.355043 
L 40.718343 285.048233 
" clip-path="url(#pa7062311b0)" style="fill: none; stroke: #000000; stroke-linecap: round"/>
   </g>
   <g id="patch_14">
    <path d="M 146.70593 289.767301 
Q 107.283611 318.409293 68.7658 346.39412 
" clip-path="url(#pa7062311b0)" style="fill: none; stroke: #000000; stroke-linecap: round"/>
    <path d="M 73.177439 345.661013 
L 68.7658 346.39412 
L 70.826298 342.424945 
" clip-path="url(#pa7062311b0)" style="fill: none; stroke: #000000; stroke-linecap: round"/>
   </g>
   <g id="patch_15">
    <path d="M 147.650821 290.478658 
Q 129.726812 340.856533 112.177577 390.181059 
" clip-path="url(#pa7062311b0)" style="fill: none; stroke: #000000; stroke-linecap: round"/>
    <path d="M 115.402693 387.082894 
L 112.177577 390.181059 
L 111.634115 385.742067 
" clip-path="url(#pa7062311b0)" style="fill: none; stroke: #000000; stroke-linecap: round"/>
   </g>
   <g id="patch_16">
    <path d="M 148.609517 290.57526 
Q 158.009988 355.268449 167.249687 418.855224 
" clip-path="url(#pa7062311b0)" style="fill: none; stroke: #000000; stroke-linecap: round"/>
    <path d="M 168.653708 414.6092 
L 167.249687 418.855224 
L 164.69528 415.184393 
" clip-path="url(#pa7062311b0)" style="fill: none; stroke: #000000; stroke-linecap: round"/>
   </g>
   <g id="patch_17">
    <path d="M 149.314716 290.327152 
Q 189.361215 360.232058 228.85196 429.166843 
" clip-path="url(#pa7062311b0)" style="fill: none; stroke: #000000; stroke-linecap: round"/>
    <path d="M 228.599038 424.701864 
L 228.85196 429.166843 
L 225.128224 426.690193 
" clip-path="url(#pa7062311b0)" style="fill: none; stroke: #000000; stroke-linecap: round"/>
   </g>
   <g id="patch_18">
    <path d="M 262.36829 327.348281 
Q 277.426276 373.691996 292.13877 418.972398 
" clip-path="url(#pa7062311b0)" style="fill: none; stroke: #000000; stroke-linecap: round"/>
    <path d="M 292.804816 414.550138 
L 292.13877 418.972398 
L 289.000589 415.786205 
" clip-path="url(#pa7062311b0)" style="fill: none; stroke: #000000; stroke-linecap: round"/>
   </g>
   <g id="patch_19">
    <path d="M 263.336818 326.669457 
Q 305.710201 359.283822 347.1976 391.216253 
" clip-path="url(#pa7062311b0)" style="fill: none; stroke: #000000; stroke-linecap: round"/>
    <path d="M 345.247686 387.1916 
L 347.1976 391.216253 
L 342.807929 390.361392 
" clip-path="url(#pa7062311b0)" style="fill: none; stroke: #000000; stroke-linecap: round"/>
   </g>
   <g id="patch_20">
    <path d="M 263.724945 325.787534 
Q 328.15673 336.83845 391.486571 347.700368 
" clip-path="url(#pa7062311b0)" style="fill: none; stroke: #000000; stroke-linecap: round"/>
    <path d="M 387.882228 345.052971 
L 391.486571 347.700368 
L 387.206047 348.995404 
" clip-path="url(#pa7062311b0)" style="fill: none; stroke: #000000; stroke-linecap: round"/>
   </g>
   <g id="patch_21">
    <path d="M 263.706899 325.040181 
Q 342.565464 308.5555 420.329652 292.29959 
" clip-path="url(#pa7062311b0)" style="fill: none; stroke: #000000; stroke-linecap: round"/>
    <path d="M 416.005048 291.160379 
L 420.329652 292.29959 
L 416.82352 295.075747 
" clip-path="url(#pa7062311b0)" style="fill: none; stroke: #000000; stroke-linecap: round"/>
   </g>
   <g id="text_1">
    <!-- Apple 1 -->
    <g transform="translate(310.502202 218.814545) scale(0.1 -0.1)">
     <defs>
      <path id="DejaVuSans-Bold-41" d="M 3419 850 
L 1538 850 
L 1241 0 
L 31 0 
L 1759 4666 
L 3194 4666 
L 4922 0 
L 3713 0 
L 3419 850 
z
M 1838 1716 
L 3116 1716 
L 2478 3572 
L 1838 1716 
z
" transform="scale(0.015625)"/>
      <path id="DejaVuSans-Bold-70" d="M 1656 506 
L 1656 -1331 
L 538 -1331 
L 538 3500 
L 1656 3500 
L 1656 2988 
Q 1888 3294 2169 3439 
Q 2450 3584 2816 3584 
Q 3463 3584 3878 3070 
Q 4294 2556 4294 1747 
Q 4294 938 3878 423 
Q 3463 -91 2816 -91 
Q 2450 -91 2169 54 
Q 1888 200 1656 506 
z
M 2400 2772 
Q 2041 2772 1848 2508 
Q 1656 2244 1656 1747 
Q 1656 1250 1848 986 
Q 2041 722 2400 722 
Q 2759 722 2948 984 
Q 3138 1247 3138 1747 
Q 3138 2247 2948 2509 
Q 2759 2772 2400 2772 
z
" transform="scale(0.015625)"/>
      <path id="DejaVuSans-Bold-6c" d="M 538 4863 
L 1656 4863 
L 1656 0 
L 538 0 
L 538 4863 
z
" transform="scale(0.015625)"/>
      <path id="DejaVuSans-Bold-65" d="M 4031 1759 
L 4031 1441 
L 1416 1441 
Q 1456 1047 1700 850 
Q 1944 653 2381 653 
Q 2734 653 3104 758 
Q 3475 863 3866 1075 
L 3866 213 
Q 3469 63 3072 -14 
Q 2675 -91 2278 -91 
Q 1328 -91 801 392 
Q 275 875 275 1747 
Q 275 2603 792 3093 
Q 1309 3584 2216 3584 
Q 3041 3584 3536 3087 
Q 4031 2591 4031 1759 
z
M 2881 2131 
Q 2881 2450 2695 2645 
Q 2509 2841 2209 2841 
Q 1884 2841 1681 2658 
Q 1478 2475 1428 2131 
L 2881 2131 
z
" transform="scale(0.015625)"/>
      <path id="DejaVuSans-Bold-20" transform="scale(0.015625)"/>
      <path id="DejaVuSans-Bold-31" d="M 750 831 
L 1813 831 
L 1813 3847 
L 722 3622 
L 722 4441 
L 1806 4666 
L 2950 4666 
L 2950 831 
L 4013 831 
L 4013 0 
L 750 0 
L 750 831 
z
" transform="scale(0.015625)"/>
     </defs>
     <use xlink:href="#DejaVuSans-Bold-41"/>
     <use xlink:href="#DejaVuSans-Bold-70" transform="translate(77.392578 0)"/>
     <use xlink:href="#DejaVuSans-Bold-70" transform="translate(148.974609 0)"/>
     <use xlink:href="#DejaVuSans-Bold-6c" transform="translate(220.556641 0)"/>
     <use xlink:href="#DejaVuSans-Bold-65" transform="translate(254.833984 0)"/>
     <use xlink:href="#DejaVuSans-Bold-20" transform="translate(322.65625 0)"/>
     <use xlink:href="#DejaVuSans-Bold-31" transform="translate(357.470703 0)"/>
    </g>
   </g>
   <g id="text_2">
    <!-- Apple 2 -->
    <g transform="translate(240.398835 122.325539) scale(0.1 -0.1)">
     <defs>
      <path id="DejaVuSans-Bold-32" d="M 1844 884 
L 3897 884 
L 3897 0 
L 506 0 
L 506 884 
L 2209 2388 
Q 2438 2594 2547 2791 
Q 2656 2988 2656 3200 
Q 2656 3528 2436 3728 
Q 2216 3928 1850 3928 
Q 1569 3928 1234 3808 
Q 900 3688 519 3450 
L 519 4475 
Q 925 4609 1322 4679 
Q 1719 4750 2100 4750 
Q 2938 4750 3402 4381 
Q 3866 4013 3866 3353 
Q 3866 2972 3669 2642 
Q 3472 2313 2841 1759 
L 1844 884 
z
" transform="scale(0.015625)"/>
     </defs>
     <use xlink:href="#DejaVuSans-Bold-41"/>
     <use xlink:href="#DejaVuSans-Bold-70" transform="translate(77.392578 0)"/>
     <use xlink:href="#DejaVuSans-Bold-70" transform="translate(148.974609 0)"/>
     <use xlink:href="#DejaVuSans-Bold-6c" transform="translate(220.556641 0)"/>
     <use xlink:href="#DejaVuSans-Bold-65" transform="translate(254.833984 0)"/>
     <use xlink:href="#DejaVuSans-Bold-20" transform="translate(322.65625 0)"/>
     <use xlink:href="#DejaVuSans-Bold-32" transform="translate(357.470703 0)"/>
    </g>
   </g>
   <g id="text_3">
    <!-- Apple 3 -->
    <g transform="translate(126.969205 159.18106) scale(0.1 -0.1)">
     <defs>
      <path id="DejaVuSans-Bold-33" d="M 2981 2516 
Q 3453 2394 3698 2092 
Q 3944 1791 3944 1325 
Q 3944 631 3412 270 
Q 2881 -91 1863 -91 
Q 1503 -91 1142 -33 
Q 781 25 428 141 
L 428 1069 
Q 766 900 1098 814 
Q 1431 728 1753 728 
Q 2231 728 2486 893 
Q 2741 1059 2741 1369 
Q 2741 1688 2480 1852 
Q 2219 2016 1709 2016 
L 1228 2016 
L 1228 2791 
L 1734 2791 
Q 2188 2791 2409 2933 
Q 2631 3075 2631 3366 
Q 2631 3634 2415 3781 
Q 2200 3928 1806 3928 
Q 1516 3928 1219 3862 
Q 922 3797 628 3669 
L 628 4550 
Q 984 4650 1334 4700 
Q 1684 4750 2022 4750 
Q 2931 4750 3382 4451 
Q 3834 4153 3834 3553 
Q 3834 3144 3618 2883 
Q 3403 2622 2981 2516 
z
" transform="scale(0.015625)"/>
     </defs>
     <use xlink:href="#DejaVuSans-Bold-41"/>
     <use xlink:href="#DejaVuSans-Bold-70" transform="translate(77.392578 0)"/>
     <use xlink:href="#DejaVuSans-Bold-70" transform="translate(148.974609 0)"/>
     <use xlink:href="#DejaVuSans-Bold-6c" transform="translate(220.556641 0)"/>
     <use xlink:href="#DejaVuSans-Bold-65" transform="translate(254.833984 0)"/>
     <use xlink:href="#DejaVuSans-Bold-20" transform="translate(322.65625 0)"/>
     <use xlink:href="#DejaVuSans-Bold-33" transform="translate(357.470703 0)"/>
    </g>
   </g>
   <g id="text_4">
    <!-- Apple 4 -->
    <g transform="translate(126.969205 278.448031) scale(0.1 -0.1)">
     <defs>
      <path id="DejaVuSans-Bold-34" d="M 2356 3675 
L 1038 1722 
L 2356 1722 
L 2356 3675 
z
M 2156 4666 
L 3494 4666 
L 3494 1722 
L 4159 1722 
L 4159 850 
L 3494 850 
L 3494 0 
L 2356 0 
L 2356 850 
L 288 850 
L 288 1881 
L 2156 4666 
z
" transform="scale(0.015625)"/>
     </defs>
     <use xlink:href="#DejaVuSans-Bold-41"/>
     <use xlink:href="#DejaVuSans-Bold-70" transform="translate(77.392578 0)"/>
     <use xlink:href="#DejaVuSans-Bold-70" transform="translate(148.974609 0)"/>
     <use xlink:href="#DejaVuSans-Bold-6c" transform="translate(220.556641 0)"/>
     <use xlink:href="#DejaVuSans-Bold-65" transform="translate(254.833984 0)"/>
     <use xlink:href="#DejaVuSans-Bold-20" transform="translate(322.65625 0)"/>
     <use xlink:href="#DejaVuSans-Bold-34" transform="translate(357.470703 0)"/>
    </g>
   </g>
   <g id="text_5">
    <!-- Apple 5 -->
    <g transform="translate(240.398835 315.303552) scale(0.1 -0.1)">
     <defs>
      <path id="DejaVuSans-Bold-35" d="M 678 4666 
L 3669 4666 
L 3669 3781 
L 1638 3781 
L 1638 3059 
Q 1775 3097 1914 3117 
Q 2053 3138 2203 3138 
Q 3056 3138 3531 2711 
Q 4006 2284 4006 1522 
Q 4006 766 3489 337 
Q 2972 -91 2053 -91 
Q 1656 -91 1267 -14 
Q 878 63 494 219 
L 494 1166 
Q 875 947 1217 837 
Q 1559 728 1863 728 
Q 2300 728 2551 942 
Q 2803 1156 2803 1522 
Q 2803 1891 2551 2103 
Q 2300 2316 1863 2316 
Q 1603 2316 1309 2248 
Q 1016 2181 678 2041 
L 678 4666 
z
" transform="scale(0.015625)"/>
     </defs>
     <use xlink:href="#DejaVuSans-Bold-41"/>
     <use xlink:href="#DejaVuSans-Bold-70" transform="translate(77.392578 0)"/>
     <use xlink:href="#DejaVuSans-Bold-70" transform="translate(148.974609 0)"/>
     <use xlink:href="#DejaVuSans-Bold-6c" transform="translate(220.556641 0)"/>
     <use xlink:href="#DejaVuSans-Bold-65" transform="translate(254.833984 0)"/>
     <use xlink:href="#DejaVuSans-Bold-20" transform="translate(322.65625 0)"/>
     <use xlink:href="#DejaVuSans-Bold-35" transform="translate(357.470703 0)"/>
    </g>
   </g>
   <g id="text_6">
    <!-- Slice 1 -->
    <g transform="translate(420.070341 218.814545) scale(0.08 -0.08)">
     <defs>
      <path id="DejaVuSans-53" d="M 3425 4513 
L 3425 3897 
Q 3066 4069 2747 4153 
Q 2428 4238 2131 4238 
Q 1616 4238 1336 4038 
Q 1056 3838 1056 3469 
Q 1056 3159 1242 3001 
Q 1428 2844 1947 2747 
L 2328 2669 
Q 3034 2534 3370 2195 
Q 3706 1856 3706 1288 
Q 3706 609 3251 259 
Q 2797 -91 1919 -91 
Q 1588 -91 1214 -16 
Q 841 59 441 206 
L 441 856 
Q 825 641 1194 531 
Q 1563 422 1919 422 
Q 2459 422 2753 634 
Q 3047 847 3047 1241 
Q 3047 1584 2836 1778 
Q 2625 1972 2144 2069 
L 1759 2144 
Q 1053 2284 737 2584 
Q 422 2884 422 3419 
Q 422 4038 858 4394 
Q 1294 4750 2059 4750 
Q 2388 4750 2728 4690 
Q 3069 4631 3425 4513 
z
" transform="scale(0.015625)"/>
      <path id="DejaVuSans-6c" d="M 603 4863 
L 1178 4863 
L 1178 0 
L 603 0 
L 603 4863 
z
" transform="scale(0.015625)"/>
      <path id="DejaVuSans-69" d="M 603 3500 
L 1178 3500 
L 1178 0 
L 603 0 
L 603 3500 
z
M 603 4863 
L 1178 4863 
L 1178 4134 
L 603 4134 
L 603 4863 
z
" transform="scale(0.015625)"/>
      <path id="DejaVuSans-63" d="M 3122 3366 
L 3122 2828 
Q 2878 2963 2633 3030 
Q 2388 3097 2138 3097 
Q 1578 3097 1268 2742 
Q 959 2388 959 1747 
Q 959 1106 1268 751 
Q 1578 397 2138 397 
Q 2388 397 2633 464 
Q 2878 531 3122 666 
L 3122 134 
Q 2881 22 2623 -34 
Q 2366 -91 2075 -91 
Q 1284 -91 818 406 
Q 353 903 353 1747 
Q 353 2603 823 3093 
Q 1294 3584 2113 3584 
Q 2378 3584 2631 3529 
Q 2884 3475 3122 3366 
z
" transform="scale(0.015625)"/>
      <path id="DejaVuSans-65" d="M 3597 1894 
L 3597 1613 
L 953 1613 
Q 991 1019 1311 708 
Q 1631 397 2203 397 
Q 2534 397 2845 478 
Q 3156 559 3463 722 
L 3463 178 
Q 3153 47 2828 -22 
Q 2503 -91 2169 -91 
Q 1331 -91 842 396 
Q 353 884 353 1716 
Q 353 2575 817 3079 
Q 1281 3584 2069 3584 
Q 2775 3584 3186 3129 
Q 3597 2675 3597 1894 
z
M 3022 2063 
Q 3016 2534 2758 2815 
Q 2500 3097 2075 3097 
Q 1594 3097 1305 2825 
Q 1016 2553 972 2059 
L 3022 2063 
z
" transform="scale(0.015625)"/>
      <path id="DejaVuSans-20" transform="scale(0.015625)"/>
      <path id="DejaVuSans-31" d="M 794 531 
L 1825 531 
L 1825 4091 
L 703 3866 
L 703 4441 
L 1819 4666 
L 2450 4666 
L 2450 531 
L 3481 531 
L 3481 0 
L 794 0 
L 794 531 
z
" transform="scale(0.015625)"/>
     </defs>
     <use xlink:href="#DejaVuSans-53"/>
     <use xlink:href="#DejaVuSans-6c" transform="translate(63.476562 0)"/>
     <use xlink:href="#DejaVuSans-69" transform="translate(91.259766 0)"/>
     <use xlink:href="#DejaVuSans-63" transform="translate(119.042969 0)"/>
     <use xlink:href="#DejaVuSans-65" transform="translate(174.023438 0)"/>
     <use xlink:href="#DejaVuSans-20" transform="translate(235.546875 0)"/>
     <use xlink:href="#DejaVuSans-31" transform="translate(267.333984 0)"/>
    </g>
   </g>
   <g id="text_7">
    <!-- Slice 2 -->
    <g transform="translate(410.139263 156.112188) scale(0.08 -0.08)">
     <defs>
      <path id="DejaVuSans-32" d="M 1228 531 
L 3431 531 
L 3431 0 
L 469 0 
L 469 531 
Q 828 903 1448 1529 
Q 2069 2156 2228 2338 
Q 2531 2678 2651 2914 
Q 2772 3150 2772 3378 
Q 2772 3750 2511 3984 
Q 2250 4219 1831 4219 
Q 1534 4219 1204 4116 
Q 875 4013 500 3803 
L 500 4441 
Q 881 4594 1212 4672 
Q 1544 4750 1819 4750 
Q 2544 4750 2975 4387 
Q 3406 4025 3406 3419 
Q 3406 3131 3298 2873 
Q 3191 2616 2906 2266 
Q 2828 2175 2409 1742 
Q 1991 1309 1228 531 
z
" transform="scale(0.015625)"/>
     </defs>
     <use xlink:href="#DejaVuSans-53"/>
     <use xlink:href="#DejaVuSans-6c" transform="translate(63.476562 0)"/>
     <use xlink:href="#DejaVuSans-69" transform="translate(91.259766 0)"/>
     <use xlink:href="#DejaVuSans-63" transform="translate(119.042969 0)"/>
     <use xlink:href="#DejaVuSans-65" transform="translate(174.023438 0)"/>
     <use xlink:href="#DejaVuSans-20" transform="translate(235.546875 0)"/>
     <use xlink:href="#DejaVuSans-32" transform="translate(267.333984 0)"/>
    </g>
   </g>
   <g id="text_8">
    <!-- Slice 3 -->
    <g transform="translate(381.318153 99.547574) scale(0.08 -0.08)">
     <defs>
      <path id="DejaVuSans-33" d="M 2597 2516 
Q 3050 2419 3304 2112 
Q 3559 1806 3559 1356 
Q 3559 666 3084 287 
Q 2609 -91 1734 -91 
Q 1441 -91 1130 -33 
Q 819 25 488 141 
L 488 750 
Q 750 597 1062 519 
Q 1375 441 1716 441 
Q 2309 441 2620 675 
Q 2931 909 2931 1356 
Q 2931 1769 2642 2001 
Q 2353 2234 1838 2234 
L 1294 2234 
L 1294 2753 
L 1863 2753 
Q 2328 2753 2575 2939 
Q 2822 3125 2822 3475 
Q 2822 3834 2567 4026 
Q 2313 4219 1838 4219 
Q 1578 4219 1281 4162 
Q 984 4106 628 3988 
L 628 4550 
Q 988 4650 1302 4700 
Q 1616 4750 1894 4750 
Q 2613 4750 3031 4423 
Q 3450 4097 3450 3541 
Q 3450 3153 3228 2886 
Q 3006 2619 2597 2516 
z
" transform="scale(0.015625)"/>
     </defs>
     <use xlink:href="#DejaVuSans-53"/>
     <use xlink:href="#DejaVuSans-6c" transform="translate(63.476562 0)"/>
     <use xlink:href="#DejaVuSans-69" transform="translate(91.259766 0)"/>
     <use xlink:href="#DejaVuSans-63" transform="translate(119.042969 0)"/>
     <use xlink:href="#DejaVuSans-65" transform="translate(174.023438 0)"/>
     <use xlink:href="#DejaVuSans-20" transform="translate(235.546875 0)"/>
     <use xlink:href="#DejaVuSans-33" transform="translate(267.333984 0)"/>
    </g>
   </g>
   <g id="text_9">
    <!-- Slice 4 -->
    <g transform="translate(336.428221 54.657643) scale(0.08 -0.08)">
     <defs>
      <path id="DejaVuSans-34" d="M 2419 4116 
L 825 1625 
L 2419 1625 
L 2419 4116 
z
M 2253 4666 
L 3047 4666 
L 3047 1625 
L 3713 1625 
L 3713 1100 
L 3047 1100 
L 3047 0 
L 2419 0 
L 2419 1100 
L 313 1100 
L 313 1709 
L 2253 4666 
z
" transform="scale(0.015625)"/>
     </defs>
     <use xlink:href="#DejaVuSans-53"/>
     <use xlink:href="#DejaVuSans-6c" transform="translate(63.476562 0)"/>
     <use xlink:href="#DejaVuSans-69" transform="translate(91.259766 0)"/>
     <use xlink:href="#DejaVuSans-63" transform="translate(119.042969 0)"/>
     <use xlink:href="#DejaVuSans-65" transform="translate(174.023438 0)"/>
     <use xlink:href="#DejaVuSans-20" transform="translate(235.546875 0)"/>
     <use xlink:href="#DejaVuSans-34" transform="translate(267.333984 0)"/>
    </g>
   </g>
   <g id="text_10">
    <!-- Slice 5 -->
    <g transform="translate(279.863607 25.836532) scale(0.08 -0.08)">
     <defs>
      <path id="DejaVuSans-35" d="M 691 4666 
L 3169 4666 
L 3169 4134 
L 1269 4134 
L 1269 2991 
Q 1406 3038 1543 3061 
Q 1681 3084 1819 3084 
Q 2600 3084 3056 2656 
Q 3513 2228 3513 1497 
Q 3513 744 3044 326 
Q 2575 -91 1722 -91 
Q 1428 -91 1123 -41 
Q 819 9 494 109 
L 494 744 
Q 775 591 1075 516 
Q 1375 441 1709 441 
Q 2250 441 2565 725 
Q 2881 1009 2881 1497 
Q 2881 1984 2565 2268 
Q 2250 2553 1709 2553 
Q 1456 2553 1204 2497 
Q 953 2441 691 2322 
L 691 4666 
z
" transform="scale(0.015625)"/>
     </defs>
     <use xlink:href="#DejaVuSans-53"/>
     <use xlink:href="#DejaVuSans-6c" transform="translate(63.476562 0)"/>
     <use xlink:href="#DejaVuSans-69" transform="translate(91.259766 0)"/>
     <use xlink:href="#DejaVuSans-63" transform="translate(119.042969 0)"/>
     <use xlink:href="#DejaVuSans-65" transform="translate(174.023438 0)"/>
     <use xlink:href="#DejaVuSans-20" transform="translate(235.546875 0)"/>
     <use xlink:href="#DejaVuSans-35" transform="translate(267.333984 0)"/>
    </g>
   </g>
   <g id="text_11">
    <!-- Slice 6 -->
    <g transform="translate(217.16125 15.905455) scale(0.08 -0.08)">
     <defs>
      <path id="DejaVuSans-36" d="M 2113 2584 
Q 1688 2584 1439 2293 
Q 1191 2003 1191 1497 
Q 1191 994 1439 701 
Q 1688 409 2113 409 
Q 2538 409 2786 701 
Q 3034 994 3034 1497 
Q 3034 2003 2786 2293 
Q 2538 2584 2113 2584 
z
M 3366 4563 
L 3366 3988 
Q 3128 4100 2886 4159 
Q 2644 4219 2406 4219 
Q 1781 4219 1451 3797 
Q 1122 3375 1075 2522 
Q 1259 2794 1537 2939 
Q 1816 3084 2150 3084 
Q 2853 3084 3261 2657 
Q 3669 2231 3669 1497 
Q 3669 778 3244 343 
Q 2819 -91 2113 -91 
Q 1303 -91 875 529 
Q 447 1150 447 2328 
Q 447 3434 972 4092 
Q 1497 4750 2381 4750 
Q 2619 4750 2861 4703 
Q 3103 4656 3366 4563 
z
" transform="scale(0.015625)"/>
     </defs>
     <use xlink:href="#DejaVuSans-53"/>
     <use xlink:href="#DejaVuSans-6c" transform="translate(63.476562 0)"/>
     <use xlink:href="#DejaVuSans-69" transform="translate(91.259766 0)"/>
     <use xlink:href="#DejaVuSans-63" transform="translate(119.042969 0)"/>
     <use xlink:href="#DejaVuSans-65" transform="translate(174.023438 0)"/>
     <use xlink:href="#DejaVuSans-20" transform="translate(235.546875 0)"/>
     <use xlink:href="#DejaVuSans-36" transform="translate(267.333984 0)"/>
    </g>
   </g>
   <g id="text_12">
    <!-- Slice 7 -->
    <g transform="translate(154.458893 25.836532) scale(0.08 -0.08)">
     <defs>
      <path id="DejaVuSans-37" d="M 525 4666 
L 3525 4666 
L 3525 4397 
L 1831 0 
L 1172 0 
L 2766 4134 
L 525 4134 
L 525 4666 
z
" transform="scale(0.015625)"/>
     </defs>
     <use xlink:href="#DejaVuSans-53"/>
     <use xlink:href="#DejaVuSans-6c" transform="translate(63.476562 0)"/>
     <use xlink:href="#DejaVuSans-69" transform="translate(91.259766 0)"/>
     <use xlink:href="#DejaVuSans-63" transform="translate(119.042969 0)"/>
     <use xlink:href="#DejaVuSans-65" transform="translate(174.023438 0)"/>
     <use xlink:href="#DejaVuSans-20" transform="translate(235.546875 0)"/>
     <use xlink:href="#DejaVuSans-37" transform="translate(267.333984 0)"/>
    </g>
   </g>
   <g id="text_13">
    <!-- Slice 8 -->
    <g transform="translate(97.894279 54.657643) scale(0.08 -0.08)">
     <defs>
      <path id="DejaVuSans-38" d="M 2034 2216 
Q 1584 2216 1326 1975 
Q 1069 1734 1069 1313 
Q 1069 891 1326 650 
Q 1584 409 2034 409 
Q 2484 409 2743 651 
Q 3003 894 3003 1313 
Q 3003 1734 2745 1975 
Q 2488 2216 2034 2216 
z
M 1403 2484 
Q 997 2584 770 2862 
Q 544 3141 544 3541 
Q 544 4100 942 4425 
Q 1341 4750 2034 4750 
Q 2731 4750 3128 4425 
Q 3525 4100 3525 3541 
Q 3525 3141 3298 2862 
Q 3072 2584 2669 2484 
Q 3125 2378 3379 2068 
Q 3634 1759 3634 1313 
Q 3634 634 3220 271 
Q 2806 -91 2034 -91 
Q 1263 -91 848 271 
Q 434 634 434 1313 
Q 434 1759 690 2068 
Q 947 2378 1403 2484 
z
M 1172 3481 
Q 1172 3119 1398 2916 
Q 1625 2713 2034 2713 
Q 2441 2713 2670 2916 
Q 2900 3119 2900 3481 
Q 2900 3844 2670 4047 
Q 2441 4250 2034 4250 
Q 1625 4250 1398 4047 
Q 1172 3844 1172 3481 
z
" transform="scale(0.015625)"/>
     </defs>
     <use xlink:href="#DejaVuSans-53"/>
     <use xlink:href="#DejaVuSans-6c" transform="translate(63.476562 0)"/>
     <use xlink:href="#DejaVuSans-69" transform="translate(91.259766 0)"/>
     <use xlink:href="#DejaVuSans-63" transform="translate(119.042969 0)"/>
     <use xlink:href="#DejaVuSans-65" transform="translate(174.023438 0)"/>
     <use xlink:href="#DejaVuSans-20" transform="translate(235.546875 0)"/>
     <use xlink:href="#DejaVuSans-38" transform="translate(267.333984 0)"/>
    </g>
   </g>
   <g id="text_14">
    <!-- Slice 9 -->
    <g transform="translate(53.004347 99.547574) scale(0.08 -0.08)">
     <defs>
      <path id="DejaVuSans-39" d="M 703 97 
L 703 672 
Q 941 559 1184 500 
Q 1428 441 1663 441 
Q 2288 441 2617 861 
Q 2947 1281 2994 2138 
Q 2813 1869 2534 1725 
Q 2256 1581 1919 1581 
Q 1219 1581 811 2004 
Q 403 2428 403 3163 
Q 403 3881 828 4315 
Q 1253 4750 1959 4750 
Q 2769 4750 3195 4129 
Q 3622 3509 3622 2328 
Q 3622 1225 3098 567 
Q 2575 -91 1691 -91 
Q 1453 -91 1209 -44 
Q 966 3 703 97 
z
M 1959 2075 
Q 2384 2075 2632 2365 
Q 2881 2656 2881 3163 
Q 2881 3666 2632 3958 
Q 2384 4250 1959 4250 
Q 1534 4250 1286 3958 
Q 1038 3666 1038 3163 
Q 1038 2656 1286 2365 
Q 1534 2075 1959 2075 
z
" transform="scale(0.015625)"/>
     </defs>
     <use xlink:href="#DejaVuSans-53"/>
     <use xlink:href="#DejaVuSans-6c" transform="translate(63.476562 0)"/>
     <use xlink:href="#DejaVuSans-69" transform="translate(91.259766 0)"/>
     <use xlink:href="#DejaVuSans-63" transform="translate(119.042969 0)"/>
     <use xlink:href="#DejaVuSans-65" transform="translate(174.023438 0)"/>
     <use xlink:href="#DejaVuSans-20" transform="translate(235.546875 0)"/>
     <use xlink:href="#DejaVuSans-39" transform="translate(267.333984 0)"/>
    </g>
   </g>
   <g id="text_15">
    <!-- Slice 10 -->
    <g transform="translate(21.638237 156.112188) scale(0.08 -0.08)">
     <defs>
      <path id="DejaVuSans-30" d="M 2034 4250 
Q 1547 4250 1301 3770 
Q 1056 3291 1056 2328 
Q 1056 1369 1301 889 
Q 1547 409 2034 409 
Q 2525 409 2770 889 
Q 3016 1369 3016 2328 
Q 3016 3291 2770 3770 
Q 2525 4250 2034 4250 
z
M 2034 4750 
Q 2819 4750 3233 4129 
Q 3647 3509 3647 2328 
Q 3647 1150 3233 529 
Q 2819 -91 2034 -91 
Q 1250 -91 836 529 
Q 422 1150 422 2328 
Q 422 3509 836 4129 
Q 1250 4750 2034 4750 
z
" transform="scale(0.015625)"/>
     </defs>
     <use xlink:href="#DejaVuSans-53"/>
     <use xlink:href="#DejaVuSans-6c" transform="translate(63.476562 0)"/>
     <use xlink:href="#DejaVuSans-69" transform="translate(91.259766 0)"/>
     <use xlink:href="#DejaVuSans-63" transform="translate(119.042969 0)"/>
     <use xlink:href="#DejaVuSans-65" transform="translate(174.023438 0)"/>
     <use xlink:href="#DejaVuSans-20" transform="translate(235.546875 0)"/>
     <use xlink:href="#DejaVuSans-31" transform="translate(267.333984 0)"/>
     <use xlink:href="#DejaVuSans-30" transform="translate(330.957031 0)"/>
    </g>
   </g>
   <g id="text_16">
    <!-- Slice 11 -->
    <g transform="translate(11.707159 218.814545) scale(0.08 -0.08)">
     <use xlink:href="#DejaVuSans-53"/>
     <use xlink:href="#DejaVuSans-6c" transform="translate(63.476562 0)"/>
     <use xlink:href="#DejaVuSans-69" transform="translate(91.259766 0)"/>
     <use xlink:href="#DejaVuSans-63" transform="translate(119.042969 0)"/>
     <use xlink:href="#DejaVuSans-65" transform="translate(174.023438 0)"/>
     <use xlink:href="#DejaVuSans-20" transform="translate(235.546875 0)"/>
     <use xlink:href="#DejaVuSans-31" transform="translate(267.333984 0)"/>
     <use xlink:href="#DejaVuSans-31" transform="translate(330.957031 0)"/>
    </g>
   </g>
   <g id="text_17">
    <!-- Slice 12 -->
    <g transform="translate(21.638237 281.516903) scale(0.08 -0.08)">
     <use xlink:href="#DejaVuSans-53"/>
     <use xlink:href="#DejaVuSans-6c" transform="translate(63.476562 0)"/>
     <use xlink:href="#DejaVuSans-69" transform="translate(91.259766 0)"/>
     <use xlink:href="#DejaVuSans-63" transform="translate(119.042969 0)"/>
     <use xlink:href="#DejaVuSans-65" transform="translate(174.023438 0)"/>
     <use xlink:href="#DejaVuSans-20" transform="translate(235.546875 0)"/>
     <use xlink:href="#DejaVuSans-31" transform="translate(267.333984 0)"/>
     <use xlink:href="#DejaVuSans-32" transform="translate(330.957031 0)"/>
    </g>
   </g>
   <g id="text_18">
    <!-- Slice 13 -->
    <g transform="translate(50.459347 338.081517) scale(0.08 -0.08)">
     <use xlink:href="#DejaVuSans-53"/>
     <use xlink:href="#DejaVuSans-6c" transform="translate(63.476562 0)"/>
     <use xlink:href="#DejaVuSans-69" transform="translate(91.259766 0)"/>
     <use xlink:href="#DejaVuSans-63" transform="translate(119.042969 0)"/>
     <use xlink:href="#DejaVuSans-65" transform="translate(174.023438 0)"/>
     <use xlink:href="#DejaVuSans-20" transform="translate(235.546875 0)"/>
     <use xlink:href="#DejaVuSans-31" transform="translate(267.333984 0)"/>
     <use xlink:href="#DejaVuSans-33" transform="translate(330.957031 0)"/>
    </g>
   </g>
   <g id="text_19">
    <!-- Slice 14 -->
    <g transform="translate(95.349279 382.971448) scale(0.08 -0.08)">
     <use xlink:href="#DejaVuSans-53"/>
     <use xlink:href="#DejaVuSans-6c" transform="translate(63.476562 0)"/>
     <use xlink:href="#DejaVuSans-69" transform="translate(91.259766 0)"/>
     <use xlink:href="#DejaVuSans-63" transform="translate(119.042969 0)"/>
     <use xlink:href="#DejaVuSans-65" transform="translate(174.023438 0)"/>
     <use xlink:href="#DejaVuSans-20" transform="translate(235.546875 0)"/>
     <use xlink:href="#DejaVuSans-31" transform="translate(267.333984 0)"/>
     <use xlink:href="#DejaVuSans-34" transform="translate(330.957031 0)"/>
    </g>
   </g>
   <g id="text_20">
    <!-- Slice 15 -->
    <g transform="translate(151.913893 411.792559) scale(0.08 -0.08)">
     <use xlink:href="#DejaVuSans-53"/>
     <use xlink:href="#DejaVuSans-6c" transform="translate(63.476562 0)"/>
     <use xlink:href="#DejaVuSans-69" transform="translate(91.259766 0)"/>
     <use xlink:href="#DejaVuSans-63" transform="translate(119.042969 0)"/>
     <use xlink:href="#DejaVuSans-65" transform="translate(174.023438 0)"/>
     <use xlink:href="#DejaVuSans-20" transform="translate(235.546875 0)"/>
     <use xlink:href="#DejaVuSans-31" transform="translate(267.333984 0)"/>
     <use xlink:href="#DejaVuSans-35" transform="translate(330.957031 0)"/>
    </g>
   </g>
   <g id="text_21">
    <!-- Slice 16 -->
    <g transform="translate(214.61625 421.723636) scale(0.08 -0.08)">
     <use xlink:href="#DejaVuSans-53"/>
     <use xlink:href="#DejaVuSans-6c" transform="translate(63.476562 0)"/>
     <use xlink:href="#DejaVuSans-69" transform="translate(91.259766 0)"/>
     <use xlink:href="#DejaVuSans-63" transform="translate(119.042969 0)"/>
     <use xlink:href="#DejaVuSans-65" transform="translate(174.023438 0)"/>
     <use xlink:href="#DejaVuSans-20" transform="translate(235.546875 0)"/>
     <use xlink:href="#DejaVuSans-31" transform="translate(267.333984 0)"/>
     <use xlink:href="#DejaVuSans-36" transform="translate(330.957031 0)"/>
    </g>
   </g>
   <g id="text_22">
    <!-- Slice 17 -->
    <g transform="translate(277.318607 411.792559) scale(0.08 -0.08)">
     <use xlink:href="#DejaVuSans-53"/>
     <use xlink:href="#DejaVuSans-6c" transform="translate(63.476562 0)"/>
     <use xlink:href="#DejaVuSans-69" transform="translate(91.259766 0)"/>
     <use xlink:href="#DejaVuSans-63" transform="translate(119.042969 0)"/>
     <use xlink:href="#DejaVuSans-65" transform="translate(174.023438 0)"/>
     <use xlink:href="#DejaVuSans-20" transform="translate(235.546875 0)"/>
     <use xlink:href="#DejaVuSans-31" transform="translate(267.333984 0)"/>
     <use xlink:href="#DejaVuSans-37" transform="translate(330.957031 0)"/>
    </g>
   </g>
   <g id="text_23">
    <!-- Slice 18 -->
    <g transform="translate(333.883221 382.971448) scale(0.08 -0.08)">
     <use xlink:href="#DejaVuSans-53"/>
     <use xlink:href="#DejaVuSans-6c" transform="translate(63.476562 0)"/>
     <use xlink:href="#DejaVuSans-69" transform="translate(91.259766 0)"/>
     <use xlink:href="#DejaVuSans-63" transform="translate(119.042969 0)"/>
     <use xlink:href="#DejaVuSans-65" transform="translate(174.023438 0)"/>
     <use xlink:href="#DejaVuSans-20" transform="translate(235.546875 0)"/>
     <use xlink:href="#DejaVuSans-31" transform="translate(267.333984 0)"/>
     <use xlink:href="#DejaVuSans-38" transform="translate(330.957031 0)"/>
    </g>
   </g>
   <g id="text_24">
    <!-- Slice 19 -->
    <g transform="translate(378.773153 338.081517) scale(0.08 -0.08)">
     <use xlink:href="#DejaVuSans-53"/>
     <use xlink:href="#DejaVuSans-6c" transform="translate(63.476562 0)"/>
     <use xlink:href="#DejaVuSans-69" transform="translate(91.259766 0)"/>
     <use xlink:href="#DejaVuSans-63" transform="translate(119.042969 0)"/>
     <use xlink:href="#DejaVuSans-65" transform="translate(174.023438 0)"/>
     <use xlink:href="#DejaVuSans-20" transform="translate(235.546875 0)"/>
     <use xlink:href="#DejaVuSans-31" transform="translate(267.333984 0)"/>
     <use xlink:href="#DejaVuSans-39" transform="translate(330.957031 0)"/>
    </g>
   </g>
   <g id="text_25">
    <!-- Slice 20 -->
    <g transform="translate(407.594263 281.516903) scale(0.08 -0.08)">
     <use xlink:href="#DejaVuSans-53"/>
     <use xlink:href="#DejaVuSans-6c" transform="translate(63.476562 0)"/>
     <use xlink:href="#DejaVuSans-69" transform="translate(91.259766 0)"/>
     <use xlink:href="#DejaVuSans-63" transform="translate(119.042969 0)"/>
     <use xlink:href="#DejaVuSans-65" transform="translate(174.023438 0)"/>
     <use xlink:href="#DejaVuSans-20" transform="translate(235.546875 0)"/>
     <use xlink:href="#DejaVuSans-32" transform="translate(267.333984 0)"/>
     <use xlink:href="#DejaVuSans-30" transform="translate(330.957031 0)"/>
    </g>
   </g>
  </g>
 </g>
 <defs>
  <clipPath id="pa7062311b0">
   <rect x="7.2" y="7.2" width="446.4" height="443.52"/>
  </clipPath>
 </defs>
</svg>
