<?xml version="1.0" encoding="utf-8" standalone="no"?>
<!DOCTYPE svg PUBLIC "-//W3C//DTD SVG 1.1//EN"
  "http://www.w3.org/Graphics/SVG/1.1/DTD/svg11.dtd">
<svg xmlns:xlink="http://www.w3.org/1999/xlink" width="401.741875pt" height="314.667469pt" viewBox="0 0 401.741875 314.667469" xmlns="http://www.w3.org/2000/svg" version="1.1">
 <metadata>
  <rdf:RDF xmlns:dc="http://purl.org/dc/elements/1.1/" xmlns:cc="http://creativecommons.org/ns#" xmlns:rdf="http://www.w3.org/1999/02/22-rdf-syntax-ns#">
   <cc:Work>
    <dc:type rdf:resource="http://purl.org/dc/dcmitype/StillImage"/>
    <dc:date>1980-01-01T00:00:00+00:00</dc:date>
    <dc:format>image/svg+xml</dc:format>
    <dc:creator>
     <cc:Agent>
      <dc:title>Matplotlib v3.10.5, https://matplotlib.org/</dc:title>
     </cc:Agent>
    </dc:creator>
   </cc:Work>
  </rdf:RDF>
 </metadata>
 <defs>
  <style type="text/css">*{stroke-linejoin: round; stroke-linecap: butt}</style>
 </defs>
 <g id="figure_1">
  <g id="patch_1">
   <path d="M 0 314.667469 
L 401.741875 314.667469 
L 401.741875 0 
L 0 0 
L 0 314.667469 
z
" style="fill: none"/>
  </g>
  <g id="axes_1">
   <g id="patch_2">
    <path d="M 34.240625 277.111219 
L 391.360625 277.111219 
L 391.360625 10.999219 
L 34.240625 10.999219 
L 34.240625 277.111219 
z
" style="fill: none"/>
   </g>
   <g id="FillBetweenPolyCollection_1">
    <defs>
     <path id="m9eb5f31479" d="M 105.664625 -37.55625 
L 105.664625 -126.26025 
L 106.201648 -126.593724 
L 106.73867 -126.927197 
L 107.275693 -127.260671 
L 107.812715 -127.594145 
L 108.349738 -127.927618 
L 108.88676 -128.261092 
L 109.423783 -128.594566 
L 109.960805 -128.928039 
L 110.497828 -129.261513 
L 111.034851 -129.594987 
L 111.571873 -129.928461 
L 112.108896 -130.261934 
L 112.645918 -130.595408 
L 113.182941 -130.928882 
L 113.719963 -131.262355 
L 114.256986 -131.595829 
L 114.794008 -131.929303 
L 115.331031 -132.262776 
L 115.868054 -132.59625 
L 116.405076 -132.929724 
L 116.942099 -133.263197 
L 117.479121 -133.596671 
L 118.016144 -133.930145 
L 118.553166 -134.263618 
L 119.090189 -134.597092 
L 119.627211 -134.930566 
L 120.164234 -135.264039 
L 120.701257 -135.597513 
L 121.238279 -135.930987 
L 121.775302 -136.264461 
L 122.312324 -136.597934 
L 122.849347 -136.931408 
L 123.386369 -137.264882 
L 123.923392 -137.598355 
L 124.460414 -137.931829 
L 124.997437 -138.265303 
L 125.53446 -138.598776 
L 126.071482 -138.93225 
L 126.608505 -139.265724 
L 127.145527 -139.599197 
L 127.68255 -139.932671 
L 128.219572 -140.266145 
L 128.756595 -140.599618 
L 129.293617 -140.933092 
L 129.83064 -141.266566 
L 130.367663 -141.600039 
L 130.904685 -141.933513 
L 131.441708 -142.266987 
L 131.97873 -142.600461 
L 132.515753 -142.933934 
L 133.052775 -143.267408 
L 133.589798 -143.600882 
L 134.12682 -143.934355 
L 134.663843 -144.267829 
L 135.200866 -144.601303 
L 135.737888 -144.934776 
L 136.274911 -145.26825 
L 136.811933 -145.601724 
L 137.348956 -145.935197 
L 137.885978 -146.268671 
L 138.423001 -146.602145 
L 138.960023 -146.935618 
L 139.497046 -147.269092 
L 140.034069 -147.602566 
L 140.571091 -147.936039 
L 141.108114 -148.269513 
L 141.645136 -148.602987 
L 142.182159 -148.936461 
L 142.719181 -149.269934 
L 143.256204 -149.603408 
L 143.793227 -149.936882 
L 144.330249 -150.270355 
L 144.867272 -150.603829 
L 145.404294 -150.937303 
L 145.941317 -151.270776 
L 146.478339 -151.60425 
L 147.015362 -151.937724 
L 147.552384 -152.271197 
L 148.089407 -152.604671 
L 148.62643 -152.938145 
L 149.163452 -153.271618 
L 149.700475 -153.605092 
L 150.237497 -153.938566 
L 150.77452 -154.272039 
L 151.311542 -154.605513 
L 151.848565 -154.938987 
L 152.385587 -155.272461 
L 152.92261 -155.605934 
L 153.459633 -155.939408 
L 153.996655 -156.272882 
L 154.533678 -156.606355 
L 155.0707 -156.939829 
L 155.607723 -157.273303 
L 156.144745 -157.606776 
L 156.681768 -157.94025 
L 157.21879 -158.273724 
L 157.755813 -158.607197 
L 158.292836 -158.940671 
L 158.829858 -159.274145 
L 159.366881 -159.607618 
L 159.903903 -159.941092 
L 160.440926 -160.274566 
L 160.977948 -160.608039 
L 161.514971 -160.941513 
L 162.051993 -161.274987 
L 162.589016 -161.608461 
L 163.126039 -161.941934 
L 163.663061 -162.275408 
L 164.200084 -162.608882 
L 164.737106 -162.942355 
L 165.274129 -163.275829 
L 165.811151 -163.609303 
L 166.348174 -163.942776 
L 166.885196 -164.27625 
L 167.422219 -164.609724 
L 167.959242 -164.943197 
L 168.496264 -165.276671 
L 169.033287 -165.610145 
L 169.570309 -165.943618 
L 170.107332 -166.277092 
L 170.644354 -166.610566 
L 171.181377 -166.944039 
L 171.718399 -167.277513 
L 172.255422 -167.610987 
L 172.792445 -167.944461 
L 173.329467 -168.277934 
L 173.86649 -168.611408 
L 174.403512 -168.944882 
L 174.940535 -169.278355 
L 175.477557 -169.611829 
L 176.01458 -169.945303 
L 176.551602 -170.278776 
L 177.088625 -170.61225 
L 177.625648 -170.945724 
L 178.16267 -171.279197 
L 178.699693 -171.612671 
L 179.236715 -171.946145 
L 179.773738 -172.279618 
L 180.31076 -172.613092 
L 180.847783 -172.946566 
L 181.384805 -173.280039 
L 181.921828 -173.613513 
L 182.458851 -173.946987 
L 182.995873 -174.280461 
L 183.532896 -174.613934 
L 184.069918 -174.947408 
L 184.606941 -175.280882 
L 185.143963 -175.614355 
L 185.680986 -175.947829 
L 186.218008 -176.281303 
L 186.755031 -176.614776 
L 187.292054 -176.94825 
L 187.829076 -177.281724 
L 188.366099 -177.615197 
L 188.903121 -177.948671 
L 189.440144 -178.282145 
L 189.977166 -178.615618 
L 190.514189 -178.949092 
L 191.051211 -179.282566 
L 191.588234 -179.616039 
L 192.125257 -179.949513 
L 192.662279 -180.282987 
L 193.199302 -180.616461 
L 193.736324 -180.949934 
L 194.273347 -181.283408 
L 194.810369 -181.616882 
L 195.347392 -181.950355 
L 195.884414 -182.283829 
L 196.421437 -182.617303 
L 196.95846 -182.950776 
L 197.495482 -183.28425 
L 198.032505 -183.617724 
L 198.569527 -183.951197 
L 199.10655 -184.284671 
L 199.643572 -184.618145 
L 200.180595 -184.951618 
L 200.717617 -185.285092 
L 201.25464 -185.618566 
L 201.791663 -185.952039 
L 202.328685 -186.285513 
L 202.865708 -186.618987 
L 203.40273 -186.952461 
L 203.939753 -187.285934 
L 204.476775 -187.619408 
L 205.013798 -187.952882 
L 205.55082 -188.286355 
L 206.087843 -188.619829 
L 206.624866 -188.953303 
L 207.161888 -189.286776 
L 207.698911 -189.62025 
L 208.235933 -189.953724 
L 208.772956 -190.287197 
L 209.309978 -190.620671 
L 209.847001 -190.954145 
L 210.384023 -191.287618 
L 210.921046 -191.621092 
L 211.458069 -191.954566 
L 211.995091 -192.288039 
L 212.532114 -192.621513 
L 213.069136 -192.954987 
L 213.606159 -193.288461 
L 214.143181 -193.621934 
L 214.680204 -193.955408 
L 215.217227 -194.288882 
L 215.754249 -194.622355 
L 216.291272 -194.955829 
L 216.828294 -195.289303 
L 217.365317 -195.622776 
L 217.902339 -195.95625 
L 218.439362 -196.289724 
L 218.976384 -196.623197 
L 219.513407 -196.956671 
L 220.05043 -197.290145 
L 220.587452 -197.623618 
L 221.124475 -197.957092 
L 221.661497 -198.290566 
L 222.19852 -198.624039 
L 222.735542 -198.957513 
L 223.272565 -199.290987 
L 223.809587 -199.624461 
L 224.34661 -199.957934 
L 224.883633 -200.291408 
L 225.420655 -200.624882 
L 225.957678 -200.958355 
L 226.4947 -201.291829 
L 227.031723 -201.625303 
L 227.568745 -201.958776 
L 228.105768 -202.29225 
L 228.64279 -202.625724 
L 229.179813 -202.959197 
L 229.716836 -203.292671 
L 230.253858 -203.626145 
L 230.790881 -203.959618 
L 231.327903 -204.293092 
L 231.864926 -204.626566 
L 232.401948 -204.960039 
L 232.938971 -205.293513 
L 233.475993 -205.626987 
L 234.013016 -205.960461 
L 234.550039 -206.293934 
L 235.087061 -206.627408 
L 235.624084 -206.960882 
L 236.161106 -207.294355 
L 236.698129 -207.627829 
L 237.235151 -207.961303 
L 237.772174 -208.294776 
L 238.309196 -208.62825 
L 238.846219 -208.961724 
L 239.383242 -209.295197 
L 239.920264 -209.628671 
L 240.457287 -209.962145 
L 240.994309 -210.295618 
L 241.531332 -210.629092 
L 242.068354 -210.962566 
L 242.605377 -211.296039 
L 243.142399 -211.629513 
L 243.679422 -211.962987 
L 244.216445 -212.296461 
L 244.753467 -212.629934 
L 245.29049 -212.963408 
L 245.827512 -213.296882 
L 246.364535 -213.630355 
L 246.901557 -213.963829 
L 247.43858 -214.297303 
L 247.975602 -214.630776 
L 248.512625 -214.96425 
L 249.049648 -215.297724 
L 249.58667 -215.631197 
L 250.123693 -215.964671 
L 250.660715 -216.298145 
L 251.197738 -216.631618 
L 251.73476 -216.965092 
L 252.271783 -217.298566 
L 252.808805 -217.632039 
L 253.345828 -217.965513 
L 253.882851 -218.298987 
L 254.419873 -218.632461 
L 254.956896 -218.965934 
L 255.493918 -219.299408 
L 256.030941 -219.632882 
L 256.567963 -219.966355 
L 257.104986 -220.299829 
L 257.642008 -220.633303 
L 258.179031 -220.966776 
L 258.716054 -221.30025 
L 259.253076 -221.633724 
L 259.790099 -221.967197 
L 260.327121 -222.300671 
L 260.864144 -222.634145 
L 261.401166 -222.967618 
L 261.938189 -223.301092 
L 262.475211 -223.634566 
L 263.012234 -223.968039 
L 263.549257 -224.301513 
L 264.086279 -224.634987 
L 264.623302 -224.968461 
L 265.160324 -225.301934 
L 265.697347 -225.635408 
L 266.234369 -225.968882 
L 266.771392 -226.302355 
L 267.308414 -226.635829 
L 267.845437 -226.969303 
L 268.38246 -227.302776 
L 268.919482 -227.63625 
L 269.456505 -227.969724 
L 269.993527 -228.303197 
L 270.53055 -228.636671 
L 271.067572 -228.970145 
L 271.604595 -229.303618 
L 272.141617 -229.637092 
L 272.67864 -229.970566 
L 273.215663 -230.304039 
L 273.752685 -230.637513 
L 274.289708 -230.970987 
L 274.82673 -231.304461 
L 275.363753 -231.637934 
L 275.900775 -231.971408 
L 276.437798 -232.304882 
L 276.97482 -232.638355 
L 277.511843 -232.971829 
L 278.048866 -233.305303 
L 278.585888 -233.638776 
L 279.122911 -233.97225 
L 279.659933 -234.305724 
L 280.196956 -234.639197 
L 280.733978 -234.972671 
L 281.271001 -235.306145 
L 281.808023 -235.639618 
L 282.345046 -235.973092 
L 282.882069 -236.306566 
L 283.419091 -236.640039 
L 283.956114 -236.973513 
L 284.493136 -237.306987 
L 285.030159 -237.640461 
L 285.567181 -237.973934 
L 286.104204 -238.307408 
L 286.641227 -238.640882 
L 287.178249 -238.974355 
L 287.715272 -239.307829 
L 288.252294 -239.641303 
L 288.789317 -239.974776 
L 289.326339 -240.30825 
L 289.863362 -240.641724 
L 290.400384 -240.975197 
L 290.937407 -241.308671 
L 291.47443 -241.642145 
L 292.011452 -241.975618 
L 292.548475 -242.309092 
L 293.085497 -242.642566 
L 293.62252 -242.976039 
L 294.159542 -243.309513 
L 294.696565 -243.642987 
L 295.233587 -243.976461 
L 295.77061 -244.309934 
L 296.307633 -244.643408 
L 296.844655 -244.976882 
L 297.381678 -245.310355 
L 297.9187 -245.643829 
L 298.455723 -245.977303 
L 298.992745 -246.310776 
L 299.529768 -246.64425 
L 300.06679 -246.977724 
L 300.603813 -247.311197 
L 301.140836 -247.644671 
L 301.677858 -247.978145 
L 302.214881 -248.311618 
L 302.751903 -248.645092 
L 303.288926 -248.978566 
L 303.825948 -249.312039 
L 304.362971 -249.645513 
L 304.899993 -249.978987 
L 305.437016 -250.312461 
L 305.974039 -250.645934 
L 306.511061 -250.979408 
L 307.048084 -251.312882 
L 307.585106 -251.646355 
L 308.122129 -251.979829 
L 308.659151 -252.313303 
L 309.196174 -252.646776 
L 309.733196 -252.98025 
L 310.270219 -253.313724 
L 310.807242 -253.647197 
L 311.344264 -253.980671 
L 311.881287 -254.314145 
L 312.418309 -254.647618 
L 312.955332 -254.981092 
L 313.492354 -255.314566 
L 314.029377 -255.648039 
L 314.566399 -255.981513 
L 315.103422 -256.314987 
L 315.640445 -256.648461 
L 316.177467 -256.981934 
L 316.71449 -257.315408 
L 317.251512 -257.648882 
L 317.788535 -257.982355 
L 318.325557 -258.315829 
L 318.86258 -258.649303 
L 319.399602 -258.982776 
L 319.936625 -259.31625 
L 319.936625 -37.55625 
L 319.936625 -37.55625 
L 319.399602 -37.55625 
L 318.86258 -37.55625 
L 318.325557 -37.55625 
L 317.788535 -37.55625 
L 317.251512 -37.55625 
L 316.71449 -37.55625 
L 316.177467 -37.55625 
L 315.640445 -37.55625 
L 315.103422 -37.55625 
L 314.566399 -37.55625 
L 314.029377 -37.55625 
L 313.492354 -37.55625 
L 312.955332 -37.55625 
L 312.418309 -37.55625 
L 311.881287 -37.55625 
L 311.344264 -37.55625 
L 310.807242 -37.55625 
L 310.270219 -37.55625 
L 309.733196 -37.55625 
L 309.196174 -37.55625 
L 308.659151 -37.55625 
L 308.122129 -37.55625 
L 307.585106 -37.55625 
L 307.048084 -37.55625 
L 306.511061 -37.55625 
L 305.974039 -37.55625 
L 305.437016 -37.55625 
L 304.899993 -37.55625 
L 304.362971 -37.55625 
L 303.825948 -37.55625 
L 303.288926 -37.55625 
L 302.751903 -37.55625 
L 302.214881 -37.55625 
L 301.677858 -37.55625 
L 301.140836 -37.55625 
L 300.603813 -37.55625 
L 300.06679 -37.55625 
L 299.529768 -37.55625 
L 298.992745 -37.55625 
L 298.455723 -37.55625 
L 297.9187 -37.55625 
L 297.381678 -37.55625 
L 296.844655 -37.55625 
L 296.307633 -37.55625 
L 295.77061 -37.55625 
L 295.233587 -37.55625 
L 294.696565 -37.55625 
L 294.159542 -37.55625 
L 293.62252 -37.55625 
L 293.085497 -37.55625 
L 292.548475 -37.55625 
L 292.011452 -37.55625 
L 291.47443 -37.55625 
L 290.937407 -37.55625 
L 290.400384 -37.55625 
L 289.863362 -37.55625 
L 289.326339 -37.55625 
L 288.789317 -37.55625 
L 288.252294 -37.55625 
L 287.715272 -37.55625 
L 287.178249 -37.55625 
L 286.641227 -37.55625 
L 286.104204 -37.55625 
L 285.567181 -37.55625 
L 285.030159 -37.55625 
L 284.493136 -37.55625 
L 283.956114 -37.55625 
L 283.419091 -37.55625 
L 282.882069 -37.55625 
L 282.345046 -37.55625 
L 281.808023 -37.55625 
L 281.271001 -37.55625 
L 280.733978 -37.55625 
L 280.196956 -37.55625 
L 279.659933 -37.55625 
L 279.122911 -37.55625 
L 278.585888 -37.55625 
L 278.048866 -37.55625 
L 277.511843 -37.55625 
L 276.97482 -37.55625 
L 276.437798 -37.55625 
L 275.900775 -37.55625 
L 275.363753 -37.55625 
L 274.82673 -37.55625 
L 274.289708 -37.55625 
L 273.752685 -37.55625 
L 273.215663 -37.55625 
L 272.67864 -37.55625 
L 272.141617 -37.55625 
L 271.604595 -37.55625 
L 271.067572 -37.55625 
L 270.53055 -37.55625 
L 269.993527 -37.55625 
L 269.456505 -37.55625 
L 268.919482 -37.55625 
L 268.38246 -37.55625 
L 267.845437 -37.55625 
L 267.308414 -37.55625 
L 266.771392 -37.55625 
L 266.234369 -37.55625 
L 265.697347 -37.55625 
L 265.160324 -37.55625 
L 264.623302 -37.55625 
L 264.086279 -37.55625 
L 263.549257 -37.55625 
L 263.012234 -37.55625 
L 262.475211 -37.55625 
L 261.938189 -37.55625 
L 261.401166 -37.55625 
L 260.864144 -37.55625 
L 260.327121 -37.55625 
L 259.790099 -37.55625 
L 259.253076 -37.55625 
L 258.716054 -37.55625 
L 258.179031 -37.55625 
L 257.642008 -37.55625 
L 257.104986 -37.55625 
L 256.567963 -37.55625 
L 256.030941 -37.55625 
L 255.493918 -37.55625 
L 254.956896 -37.55625 
L 254.419873 -37.55625 
L 253.882851 -37.55625 
L 253.345828 -37.55625 
L 252.808805 -37.55625 
L 252.271783 -37.55625 
L 251.73476 -37.55625 
L 251.197738 -37.55625 
L 250.660715 -37.55625 
L 250.123693 -37.55625 
L 249.58667 -37.55625 
L 249.049648 -37.55625 
L 248.512625 -37.55625 
L 247.975602 -37.55625 
L 247.43858 -37.55625 
L 246.901557 -37.55625 
L 246.364535 -37.55625 
L 245.827512 -37.55625 
L 245.29049 -37.55625 
L 244.753467 -37.55625 
L 244.216445 -37.55625 
L 243.679422 -37.55625 
L 243.142399 -37.55625 
L 242.605377 -37.55625 
L 242.068354 -37.55625 
L 241.531332 -37.55625 
L 240.994309 -37.55625 
L 240.457287 -37.55625 
L 239.920264 -37.55625 
L 239.383242 -37.55625 
L 238.846219 -37.55625 
L 238.309196 -37.55625 
L 237.772174 -37.55625 
L 237.235151 -37.55625 
L 236.698129 -37.55625 
L 236.161106 -37.55625 
L 235.624084 -37.55625 
L 235.087061 -37.55625 
L 234.550039 -37.55625 
L 234.013016 -37.55625 
L 233.475993 -37.55625 
L 232.938971 -37.55625 
L 232.401948 -37.55625 
L 231.864926 -37.55625 
L 231.327903 -37.55625 
L 230.790881 -37.55625 
L 230.253858 -37.55625 
L 229.716836 -37.55625 
L 229.179813 -37.55625 
L 228.64279 -37.55625 
L 228.105768 -37.55625 
L 227.568745 -37.55625 
L 227.031723 -37.55625 
L 226.4947 -37.55625 
L 225.957678 -37.55625 
L 225.420655 -37.55625 
L 224.883633 -37.55625 
L 224.34661 -37.55625 
L 223.809587 -37.55625 
L 223.272565 -37.55625 
L 222.735542 -37.55625 
L 222.19852 -37.55625 
L 221.661497 -37.55625 
L 221.124475 -37.55625 
L 220.587452 -37.55625 
L 220.05043 -37.55625 
L 219.513407 -37.55625 
L 218.976384 -37.55625 
L 218.439362 -37.55625 
L 217.902339 -37.55625 
L 217.365317 -37.55625 
L 216.828294 -37.55625 
L 216.291272 -37.55625 
L 215.754249 -37.55625 
L 215.217227 -37.55625 
L 214.680204 -37.55625 
L 214.143181 -37.55625 
L 213.606159 -37.55625 
L 213.069136 -37.55625 
L 212.532114 -37.55625 
L 211.995091 -37.55625 
L 211.458069 -37.55625 
L 210.921046 -37.55625 
L 210.384023 -37.55625 
L 209.847001 -37.55625 
L 209.309978 -37.55625 
L 208.772956 -37.55625 
L 208.235933 -37.55625 
L 207.698911 -37.55625 
L 207.161888 -37.55625 
L 206.624866 -37.55625 
L 206.087843 -37.55625 
L 205.55082 -37.55625 
L 205.013798 -37.55625 
L 204.476775 -37.55625 
L 203.939753 -37.55625 
L 203.40273 -37.55625 
L 202.865708 -37.55625 
L 202.328685 -37.55625 
L 201.791663 -37.55625 
L 201.25464 -37.55625 
L 200.717617 -37.55625 
L 200.180595 -37.55625 
L 199.643572 -37.55625 
L 199.10655 -37.55625 
L 198.569527 -37.55625 
L 198.032505 -37.55625 
L 197.495482 -37.55625 
L 196.95846 -37.55625 
L 196.421437 -37.55625 
L 195.884414 -37.55625 
L 195.347392 -37.55625 
L 194.810369 -37.55625 
L 194.273347 -37.55625 
L 193.736324 -37.55625 
L 193.199302 -37.55625 
L 192.662279 -37.55625 
L 192.125257 -37.55625 
L 191.588234 -37.55625 
L 191.051211 -37.55625 
L 190.514189 -37.55625 
L 189.977166 -37.55625 
L 189.440144 -37.55625 
L 188.903121 -37.55625 
L 188.366099 -37.55625 
L 187.829076 -37.55625 
L 187.292054 -37.55625 
L 186.755031 -37.55625 
L 186.218008 -37.55625 
L 185.680986 -37.55625 
L 185.143963 -37.55625 
L 184.606941 -37.55625 
L 184.069918 -37.55625 
L 183.532896 -37.55625 
L 182.995873 -37.55625 
L 182.458851 -37.55625 
L 181.921828 -37.55625 
L 181.384805 -37.55625 
L 180.847783 -37.55625 
L 180.31076 -37.55625 
L 179.773738 -37.55625 
L 179.236715 -37.55625 
L 178.699693 -37.55625 
L 178.16267 -37.55625 
L 177.625648 -37.55625 
L 177.088625 -37.55625 
L 176.551602 -37.55625 
L 176.01458 -37.55625 
L 175.477557 -37.55625 
L 174.940535 -37.55625 
L 174.403512 -37.55625 
L 173.86649 -37.55625 
L 173.329467 -37.55625 
L 172.792445 -37.55625 
L 172.255422 -37.55625 
L 171.718399 -37.55625 
L 171.181377 -37.55625 
L 170.644354 -37.55625 
L 170.107332 -37.55625 
L 169.570309 -37.55625 
L 169.033287 -37.55625 
L 168.496264 -37.55625 
L 167.959242 -37.55625 
L 167.422219 -37.55625 
L 166.885196 -37.55625 
L 166.348174 -37.55625 
L 165.811151 -37.55625 
L 165.274129 -37.55625 
L 164.737106 -37.55625 
L 164.200084 -37.55625 
L 163.663061 -37.55625 
L 163.126039 -37.55625 
L 162.589016 -37.55625 
L 162.051993 -37.55625 
L 161.514971 -37.55625 
L 160.977948 -37.55625 
L 160.440926 -37.55625 
L 159.903903 -37.55625 
L 159.366881 -37.55625 
L 158.829858 -37.55625 
L 158.292836 -37.55625 
L 157.755813 -37.55625 
L 157.21879 -37.55625 
L 156.681768 -37.55625 
L 156.144745 -37.55625 
L 155.607723 -37.55625 
L 155.0707 -37.55625 
L 154.533678 -37.55625 
L 153.996655 -37.55625 
L 153.459633 -37.55625 
L 152.92261 -37.55625 
L 152.385587 -37.55625 
L 151.848565 -37.55625 
L 151.311542 -37.55625 
L 150.77452 -37.55625 
L 150.237497 -37.55625 
L 149.700475 -37.55625 
L 149.163452 -37.55625 
L 148.62643 -37.55625 
L 148.089407 -37.55625 
L 147.552384 -37.55625 
L 147.015362 -37.55625 
L 146.478339 -37.55625 
L 145.941317 -37.55625 
L 145.404294 -37.55625 
L 144.867272 -37.55625 
L 144.330249 -37.55625 
L 143.793227 -37.55625 
L 143.256204 -37.55625 
L 142.719181 -37.55625 
L 142.182159 -37.55625 
L 141.645136 -37.55625 
L 141.108114 -37.55625 
L 140.571091 -37.55625 
L 140.034069 -37.55625 
L 139.497046 -37.55625 
L 138.960023 -37.55625 
L 138.423001 -37.55625 
L 137.885978 -37.55625 
L 137.348956 -37.55625 
L 136.811933 -37.55625 
L 136.274911 -37.55625 
L 135.737888 -37.55625 
L 135.200866 -37.55625 
L 134.663843 -37.55625 
L 134.12682 -37.55625 
L 133.589798 -37.55625 
L 133.052775 -37.55625 
L 132.515753 -37.55625 
L 131.97873 -37.55625 
L 131.441708 -37.55625 
L 130.904685 -37.55625 
L 130.367663 -37.55625 
L 129.83064 -37.55625 
L 129.293617 -37.55625 
L 128.756595 -37.55625 
L 128.219572 -37.55625 
L 127.68255 -37.55625 
L 127.145527 -37.55625 
L 126.608505 -37.55625 
L 126.071482 -37.55625 
L 125.53446 -37.55625 
L 124.997437 -37.55625 
L 124.460414 -37.55625 
L 123.923392 -37.55625 
L 123.386369 -37.55625 
L 122.849347 -37.55625 
L 122.312324 -37.55625 
L 121.775302 -37.55625 
L 121.238279 -37.55625 
L 120.701257 -37.55625 
L 120.164234 -37.55625 
L 119.627211 -37.55625 
L 119.090189 -37.55625 
L 118.553166 -37.55625 
L 118.016144 -37.55625 
L 117.479121 -37.55625 
L 116.942099 -37.55625 
L 116.405076 -37.55625 
L 115.868054 -37.55625 
L 115.331031 -37.55625 
L 114.794008 -37.55625 
L 114.256986 -37.55625 
L 113.719963 -37.55625 
L 113.182941 -37.55625 
L 112.645918 -37.55625 
L 112.108896 -37.55625 
L 111.571873 -37.55625 
L 111.034851 -37.55625 
L 110.497828 -37.55625 
L 109.960805 -37.55625 
L 109.423783 -37.55625 
L 108.88676 -37.55625 
L 108.349738 -37.55625 
L 107.812715 -37.55625 
L 107.275693 -37.55625 
L 106.73867 -37.55625 
L 106.201648 -37.55625 
L 105.664625 -37.55625 
z
" style="stroke: #87ceeb; stroke-opacity: 0.3"/>
    </defs>
    <g clip-path="url(#p5ce2f78a34)">
     <use xlink:href="#m9eb5f31479" x="0" y="314.667469" style="fill: #87ceeb; fill-opacity: 0.3; stroke: #87ceeb; stroke-opacity: 0.3"/>
    </g>
   </g>
   <g id="PathCollection_1">
    <defs>
     <path id="m511283ed25" d="M 0 3 
C 0.795609 3 1.55874 2.683901 2.12132 2.12132 
C 2.683901 1.55874 3 0.795609 3 0 
C 3 -0.795609 2.683901 -1.55874 2.12132 -2.12132 
C 1.55874 -2.683901 0.795609 -3 0 -3 
C -0.795609 -3 -1.55874 -2.683901 -2.12132 -2.12132 
C -2.683901 -1.55874 -3 -0.795609 -3 0 
C -3 0.795609 -2.683901 1.55874 -2.12132 2.12132 
C -1.55874 2.683901 -0.795609 3 0 3 
z
" style="stroke: #ff0000"/>
    </defs>
    <g clip-path="url(#p5ce2f78a34)">
     <use xlink:href="#m511283ed25" x="105.664625" y="188.407219" style="fill: #ff0000; stroke: #ff0000"/>
     <use xlink:href="#m511283ed25" x="319.936625" y="55.351219" style="fill: #ff0000; stroke: #ff0000"/>
    </g>
   </g>
   <g id="matplotlib.axis_1">
    <g id="xtick_1">
     <g id="line2d_1">
      <path d="M 34.240625 277.111219 
L 34.240625 10.999219 
" clip-path="url(#p5ce2f78a34)" style="fill: none; stroke: #b0b0b0; stroke-width: 0.8; stroke-linecap: square"/>
     </g>
     <g id="line2d_2">
      <defs>
       <path id="m5498495ae7" d="M 0 0 
L 0 3.5 
" style="stroke: #000000; stroke-width: 0.8"/>
      </defs>
      <g>
       <use xlink:href="#m5498495ae7" x="34.240625" y="277.111219" style="stroke: #000000; stroke-width: 0.8"/>
      </g>
     </g>
     <g id="text_1">
      <!-- 0 -->
      <g transform="translate(31.059375 291.709656) scale(0.1 -0.1)">
       <defs>
        <path id="DejaVuSans-30" d="M 2034 4250 
Q 1547 4250 1301 3770 
Q 1056 3291 1056 2328 
Q 1056 1369 1301 889 
Q 1547 409 2034 409 
Q 2525 409 2770 889 
Q 3016 1369 3016 2328 
Q 3016 3291 2770 3770 
Q 2525 4250 2034 4250 
z
M 2034 4750 
Q 2819 4750 3233 4129 
Q 3647 3509 3647 2328 
Q 3647 1150 3233 529 
Q 2819 -91 2034 -91 
Q 1250 -91 836 529 
Q 422 1150 422 2328 
Q 422 3509 836 4129 
Q 1250 4750 2034 4750 
z
" transform="scale(0.015625)"/>
       </defs>
       <use xlink:href="#DejaVuSans-30"/>
      </g>
     </g>
    </g>
    <g id="xtick_2">
     <g id="line2d_3">
      <path d="M 105.664625 277.111219 
L 105.664625 10.999219 
" clip-path="url(#p5ce2f78a34)" style="fill: none; stroke: #b0b0b0; stroke-width: 0.8; stroke-linecap: square"/>
     </g>
     <g id="line2d_4">
      <g>
       <use xlink:href="#m5498495ae7" x="105.664625" y="277.111219" style="stroke: #000000; stroke-width: 0.8"/>
      </g>
     </g>
     <g id="text_2">
      <!-- 1 -->
      <g transform="translate(102.483375 291.709656) scale(0.1 -0.1)">
       <defs>
        <path id="DejaVuSans-31" d="M 794 531 
L 1825 531 
L 1825 4091 
L 703 3866 
L 703 4441 
L 1819 4666 
L 2450 4666 
L 2450 531 
L 3481 531 
L 3481 0 
L 794 0 
L 794 531 
z
" transform="scale(0.015625)"/>
       </defs>
       <use xlink:href="#DejaVuSans-31"/>
      </g>
     </g>
    </g>
    <g id="xtick_3">
     <g id="line2d_5">
      <path d="M 177.088625 277.111219 
L 177.088625 10.999219 
" clip-path="url(#p5ce2f78a34)" style="fill: none; stroke: #b0b0b0; stroke-width: 0.8; stroke-linecap: square"/>
     </g>
     <g id="line2d_6">
      <g>
       <use xlink:href="#m5498495ae7" x="177.088625" y="277.111219" style="stroke: #000000; stroke-width: 0.8"/>
      </g>
     </g>
     <g id="text_3">
      <!-- 2 -->
      <g transform="translate(173.907375 291.709656) scale(0.1 -0.1)">
       <defs>
        <path id="DejaVuSans-32" d="M 1228 531 
L 3431 531 
L 3431 0 
L 469 0 
L 469 531 
Q 828 903 1448 1529 
Q 2069 2156 2228 2338 
Q 2531 2678 2651 2914 
Q 2772 3150 2772 3378 
Q 2772 3750 2511 3984 
Q 2250 4219 1831 4219 
Q 1534 4219 1204 4116 
Q 875 4013 500 3803 
L 500 4441 
Q 881 4594 1212 4672 
Q 1544 4750 1819 4750 
Q 2544 4750 2975 4387 
Q 3406 4025 3406 3419 
Q 3406 3131 3298 2873 
Q 3191 2616 2906 2266 
Q 2828 2175 2409 1742 
Q 1991 1309 1228 531 
z
" transform="scale(0.015625)"/>
       </defs>
       <use xlink:href="#DejaVuSans-32"/>
      </g>
     </g>
    </g>
    <g id="xtick_4">
     <g id="line2d_7">
      <path d="M 248.512625 277.111219 
L 248.512625 10.999219 
" clip-path="url(#p5ce2f78a34)" style="fill: none; stroke: #b0b0b0; stroke-width: 0.8; stroke-linecap: square"/>
     </g>
     <g id="line2d_8">
      <g>
       <use xlink:href="#m5498495ae7" x="248.512625" y="277.111219" style="stroke: #000000; stroke-width: 0.8"/>
      </g>
     </g>
     <g id="text_4">
      <!-- 3 -->
      <g transform="translate(245.331375 291.709656) scale(0.1 -0.1)">
       <defs>
        <path id="DejaVuSans-33" d="M 2597 2516 
Q 3050 2419 3304 2112 
Q 3559 1806 3559 1356 
Q 3559 666 3084 287 
Q 2609 -91 1734 -91 
Q 1441 -91 1130 -33 
Q 819 25 488 141 
L 488 750 
Q 750 597 1062 519 
Q 1375 441 1716 441 
Q 2309 441 2620 675 
Q 2931 909 2931 1356 
Q 2931 1769 2642 2001 
Q 2353 2234 1838 2234 
L 1294 2234 
L 1294 2753 
L 1863 2753 
Q 2328 2753 2575 2939 
Q 2822 3125 2822 3475 
Q 2822 3834 2567 4026 
Q 2313 4219 1838 4219 
Q 1578 4219 1281 4162 
Q 984 4106 628 3988 
L 628 4550 
Q 988 4650 1302 4700 
Q 1616 4750 1894 4750 
Q 2613 4750 3031 4423 
Q 3450 4097 3450 3541 
Q 3450 3153 3228 2886 
Q 3006 2619 2597 2516 
z
" transform="scale(0.015625)"/>
       </defs>
       <use xlink:href="#DejaVuSans-33"/>
      </g>
     </g>
    </g>
    <g id="xtick_5">
     <g id="line2d_9">
      <path d="M 319.936625 277.111219 
L 319.936625 10.999219 
" clip-path="url(#p5ce2f78a34)" style="fill: none; stroke: #b0b0b0; stroke-width: 0.8; stroke-linecap: square"/>
     </g>
     <g id="line2d_10">
      <g>
       <use xlink:href="#m5498495ae7" x="319.936625" y="277.111219" style="stroke: #000000; stroke-width: 0.8"/>
      </g>
     </g>
     <g id="text_5">
      <!-- 4 -->
      <g transform="translate(316.755375 291.709656) scale(0.1 -0.1)">
       <defs>
        <path id="DejaVuSans-34" d="M 2419 4116 
L 825 1625 
L 2419 1625 
L 2419 4116 
z
M 2253 4666 
L 3047 4666 
L 3047 1625 
L 3713 1625 
L 3713 1100 
L 3047 1100 
L 3047 0 
L 2419 0 
L 2419 1100 
L 313 1100 
L 313 1709 
L 2253 4666 
z
" transform="scale(0.015625)"/>
       </defs>
       <use xlink:href="#DejaVuSans-34"/>
      </g>
     </g>
    </g>
    <g id="xtick_6">
     <g id="line2d_11">
      <path d="M 391.360625 277.111219 
L 391.360625 10.999219 
" clip-path="url(#p5ce2f78a34)" style="fill: none; stroke: #b0b0b0; stroke-width: 0.8; stroke-linecap: square"/>
     </g>
     <g id="line2d_12">
      <g>
       <use xlink:href="#m5498495ae7" x="391.360625" y="277.111219" style="stroke: #000000; stroke-width: 0.8"/>
      </g>
     </g>
     <g id="text_6">
      <!-- 5 -->
      <g transform="translate(388.179375 291.709656) scale(0.1 -0.1)">
       <defs>
        <path id="DejaVuSans-35" d="M 691 4666 
L 3169 4666 
L 3169 4134 
L 1269 4134 
L 1269 2991 
Q 1406 3038 1543 3061 
Q 1681 3084 1819 3084 
Q 2600 3084 3056 2656 
Q 3513 2228 3513 1497 
Q 3513 744 3044 326 
Q 2575 -91 1722 -91 
Q 1428 -91 1123 -41 
Q 819 9 494 109 
L 494 744 
Q 775 591 1075 516 
Q 1375 441 1709 441 
Q 2250 441 2565 725 
Q 2881 1009 2881 1497 
Q 2881 1984 2565 2268 
Q 2250 2553 1709 2553 
Q 1456 2553 1204 2497 
Q 953 2441 691 2322 
L 691 4666 
z
" transform="scale(0.015625)"/>
       </defs>
       <use xlink:href="#DejaVuSans-35"/>
      </g>
     </g>
    </g>
    <g id="text_7">
     <!-- x -->
     <g transform="translate(209.84125 305.387781) scale(0.1 -0.1)">
      <defs>
       <path id="DejaVuSans-78" d="M 3513 3500 
L 2247 1797 
L 3578 0 
L 2900 0 
L 1881 1375 
L 863 0 
L 184 0 
L 1544 1831 
L 300 3500 
L 978 3500 
L 1906 2253 
L 2834 3500 
L 3513 3500 
z
" transform="scale(0.015625)"/>
      </defs>
      <use xlink:href="#DejaVuSans-78"/>
     </g>
    </g>
   </g>
   <g id="matplotlib.axis_2">
    <g id="ytick_1">
     <g id="line2d_13">
      <path d="M 34.240625 277.111219 
L 391.360625 277.111219 
" clip-path="url(#p5ce2f78a34)" style="fill: none; stroke: #b0b0b0; stroke-width: 0.8; stroke-linecap: square"/>
     </g>
     <g id="line2d_14">
      <defs>
       <path id="me4d35722dd" d="M 0 0 
L -3.5 0 
" style="stroke: #000000; stroke-width: 0.8"/>
      </defs>
      <g>
       <use xlink:href="#me4d35722dd" x="34.240625" y="277.111219" style="stroke: #000000; stroke-width: 0.8"/>
      </g>
     </g>
     <g id="text_8">
      <!-- 0 -->
      <g transform="translate(20.878125 280.910437) scale(0.1 -0.1)">
       <use xlink:href="#DejaVuSans-30"/>
      </g>
     </g>
    </g>
    <g id="ytick_2">
     <g id="line2d_15">
      <path d="M 34.240625 232.759219 
L 391.360625 232.759219 
" clip-path="url(#p5ce2f78a34)" style="fill: none; stroke: #b0b0b0; stroke-width: 0.8; stroke-linecap: square"/>
     </g>
     <g id="line2d_16">
      <g>
       <use xlink:href="#me4d35722dd" x="34.240625" y="232.759219" style="stroke: #000000; stroke-width: 0.8"/>
      </g>
     </g>
     <g id="text_9">
      <!-- 1 -->
      <g transform="translate(20.878125 236.558437) scale(0.1 -0.1)">
       <use xlink:href="#DejaVuSans-31"/>
      </g>
     </g>
    </g>
    <g id="ytick_3">
     <g id="line2d_17">
      <path d="M 34.240625 188.407219 
L 391.360625 188.407219 
" clip-path="url(#p5ce2f78a34)" style="fill: none; stroke: #b0b0b0; stroke-width: 0.8; stroke-linecap: square"/>
     </g>
     <g id="line2d_18">
      <g>
       <use xlink:href="#me4d35722dd" x="34.240625" y="188.407219" style="stroke: #000000; stroke-width: 0.8"/>
      </g>
     </g>
     <g id="text_10">
      <!-- 2 -->
      <g transform="translate(20.878125 192.206437) scale(0.1 -0.1)">
       <use xlink:href="#DejaVuSans-32"/>
      </g>
     </g>
    </g>
    <g id="ytick_4">
     <g id="line2d_19">
      <path d="M 34.240625 144.055219 
L 391.360625 144.055219 
" clip-path="url(#p5ce2f78a34)" style="fill: none; stroke: #b0b0b0; stroke-width: 0.8; stroke-linecap: square"/>
     </g>
     <g id="line2d_20">
      <g>
       <use xlink:href="#me4d35722dd" x="34.240625" y="144.055219" style="stroke: #000000; stroke-width: 0.8"/>
      </g>
     </g>
     <g id="text_11">
      <!-- 3 -->
      <g transform="translate(20.878125 147.854437) scale(0.1 -0.1)">
       <use xlink:href="#DejaVuSans-33"/>
      </g>
     </g>
    </g>
    <g id="ytick_5">
     <g id="line2d_21">
      <path d="M 34.240625 99.703219 
L 391.360625 99.703219 
" clip-path="url(#p5ce2f78a34)" style="fill: none; stroke: #b0b0b0; stroke-width: 0.8; stroke-linecap: square"/>
     </g>
     <g id="line2d_22">
      <g>
       <use xlink:href="#me4d35722dd" x="34.240625" y="99.703219" style="stroke: #000000; stroke-width: 0.8"/>
      </g>
     </g>
     <g id="text_12">
      <!-- 4 -->
      <g transform="translate(20.878125 103.502437) scale(0.1 -0.1)">
       <use xlink:href="#DejaVuSans-34"/>
      </g>
     </g>
    </g>
    <g id="ytick_6">
     <g id="line2d_23">
      <path d="M 34.240625 55.351219 
L 391.360625 55.351219 
" clip-path="url(#p5ce2f78a34)" style="fill: none; stroke: #b0b0b0; stroke-width: 0.8; stroke-linecap: square"/>
     </g>
     <g id="line2d_24">
      <g>
       <use xlink:href="#me4d35722dd" x="34.240625" y="55.351219" style="stroke: #000000; stroke-width: 0.8"/>
      </g>
     </g>
     <g id="text_13">
      <!-- 5 -->
      <g transform="translate(20.878125 59.150437) scale(0.1 -0.1)">
       <use xlink:href="#DejaVuSans-35"/>
      </g>
     </g>
    </g>
    <g id="ytick_7">
     <g id="line2d_25">
      <path d="M 34.240625 10.999219 
L 391.360625 10.999219 
" clip-path="url(#p5ce2f78a34)" style="fill: none; stroke: #b0b0b0; stroke-width: 0.8; stroke-linecap: square"/>
     </g>
     <g id="line2d_26">
      <g>
       <use xlink:href="#me4d35722dd" x="34.240625" y="10.999219" style="stroke: #000000; stroke-width: 0.8"/>
      </g>
     </g>
     <g id="text_14">
      <!-- 6 -->
      <g transform="translate(20.878125 14.798437) scale(0.1 -0.1)">
       <defs>
        <path id="DejaVuSans-36" d="M 2113 2584 
Q 1688 2584 1439 2293 
Q 1191 2003 1191 1497 
Q 1191 994 1439 701 
Q 1688 409 2113 409 
Q 2538 409 2786 701 
Q 3034 994 3034 1497 
Q 3034 2003 2786 2293 
Q 2538 2584 2113 2584 
z
M 3366 4563 
L 3366 3988 
Q 3128 4100 2886 4159 
Q 2644 4219 2406 4219 
Q 1781 4219 1451 3797 
Q 1122 3375 1075 2522 
Q 1259 2794 1537 2939 
Q 1816 3084 2150 3084 
Q 2853 3084 3261 2657 
Q 3669 2231 3669 1497 
Q 3669 778 3244 343 
Q 2819 -91 2113 -91 
Q 1303 -91 875 529 
Q 447 1150 447 2328 
Q 447 3434 972 4092 
Q 1497 4750 2381 4750 
Q 2619 4750 2861 4703 
Q 3103 4656 3366 4563 
z
" transform="scale(0.015625)"/>
       </defs>
       <use xlink:href="#DejaVuSans-36"/>
      </g>
     </g>
    </g>
    <g id="text_15">
     <!-- f(x) -->
     <g transform="translate(14.798438 152.676312) rotate(-90) scale(0.1 -0.1)">
      <defs>
       <path id="DejaVuSans-66" d="M 2375 4863 
L 2375 4384 
L 1825 4384 
Q 1516 4384 1395 4259 
Q 1275 4134 1275 3809 
L 1275 3500 
L 2222 3500 
L 2222 3053 
L 1275 3053 
L 1275 0 
L 697 0 
L 697 3053 
L 147 3053 
L 147 3500 
L 697 3500 
L 697 3744 
Q 697 4328 969 4595 
Q 1241 4863 1831 4863 
L 2375 4863 
z
" transform="scale(0.015625)"/>
       <path id="DejaVuSans-28" d="M 1984 4856 
Q 1566 4138 1362 3434 
Q 1159 2731 1159 2009 
Q 1159 1288 1364 580 
Q 1569 -128 1984 -844 
L 1484 -844 
Q 1016 -109 783 600 
Q 550 1309 550 2009 
Q 550 2706 781 3412 
Q 1013 4119 1484 4856 
L 1984 4856 
z
" transform="scale(0.015625)"/>
       <path id="DejaVuSans-29" d="M 513 4856 
L 1013 4856 
Q 1481 4119 1714 3412 
Q 1947 2706 1947 2009 
Q 1947 1309 1714 600 
Q 1481 -109 1013 -844 
L 513 -844 
Q 928 -128 1133 580 
Q 1338 1288 1338 2009 
Q 1338 2731 1133 3434 
Q 928 4138 513 4856 
z
" transform="scale(0.015625)"/>
      </defs>
      <use xlink:href="#DejaVuSans-66"/>
      <use xlink:href="#DejaVuSans-28" transform="translate(35.205078 0)"/>
      <use xlink:href="#DejaVuSans-78" transform="translate(74.21875 0)"/>
      <use xlink:href="#DejaVuSans-29" transform="translate(133.398438 0)"/>
     </g>
    </g>
   </g>
   <g id="line2d_27">
    <path d="M 105.664625 188.407219 
L 319.936625 55.351219 
L 319.936625 55.351219 
" clip-path="url(#p5ce2f78a34)" style="fill: none; stroke: #0000ff; stroke-width: 1.5; stroke-linecap: square"/>
   </g>
   <g id="line2d_28">
    <path d="M 34.240625 277.111219 
L 391.360625 277.111219 
" clip-path="url(#p5ce2f78a34)" style="fill: none; stroke-dasharray: 5.55,2.4; stroke-dashoffset: 0; stroke: #808080; stroke-width: 1.5"/>
   </g>
   <g id="line2d_29">
    <path d="M 34.240625 277.111219 
L 34.240625 10.999219 
" clip-path="url(#p5ce2f78a34)" style="fill: none; stroke-dasharray: 5.55,2.4; stroke-dashoffset: 0; stroke: #808080; stroke-width: 1.5"/>
   </g>
   <g id="patch_3">
    <path d="M 34.240625 277.111219 
L 34.240625 10.999219 
" style="fill: none; stroke: #000000; stroke-width: 0.8; stroke-linejoin: miter; stroke-linecap: square"/>
   </g>
   <g id="patch_4">
    <path d="M 391.360625 277.111219 
L 391.360625 10.999219 
" style="fill: none; stroke: #000000; stroke-width: 0.8; stroke-linejoin: miter; stroke-linecap: square"/>
   </g>
   <g id="patch_5">
    <path d="M 34.240625 277.111219 
L 391.360625 277.111219 
" style="fill: none; stroke: #000000; stroke-width: 0.8; stroke-linejoin: miter; stroke-linecap: square"/>
   </g>
   <g id="patch_6">
    <path d="M 34.240625 10.999219 
L 391.360625 10.999219 
" style="fill: none; stroke: #000000; stroke-width: 0.8; stroke-linejoin: miter; stroke-linecap: square"/>
   </g>
   <g id="text_16">
    <!-- $x=1$ -->
    <g transform="translate(93.364625 210.583219) scale(0.1 -0.1)">
     <defs>
      <path id="DejaVuSans-Oblique-78" d="M 3841 3500 
L 2234 1784 
L 3219 0 
L 2559 0 
L 1819 1388 
L 531 0 
L -166 0 
L 1556 1844 
L 641 3500 
L 1300 3500 
L 1972 2234 
L 3144 3500 
L 3841 3500 
z
" transform="scale(0.015625)"/>
      <path id="DejaVuSans-3d" d="M 678 2906 
L 4684 2906 
L 4684 2381 
L 678 2381 
L 678 2906 
z
M 678 1631 
L 4684 1631 
L 4684 1100 
L 678 1100 
L 678 1631 
z
" transform="scale(0.015625)"/>
     </defs>
     <use xlink:href="#DejaVuSans-Oblique-78" transform="translate(0 0.09375)"/>
     <use xlink:href="#DejaVuSans-3d" transform="translate(78.662109 0.09375)"/>
     <use xlink:href="#DejaVuSans-31" transform="translate(181.933594 0.09375)"/>
    </g>
   </g>
   <g id="text_17">
    <!-- $x_0$ -->
    <g transform="translate(314.586625 46.480819) scale(0.1 -0.1)">
     <use xlink:href="#DejaVuSans-Oblique-78" transform="translate(0 0.3125)"/>
     <use xlink:href="#DejaVuSans-30" transform="translate(59.179688 -16.09375) scale(0.7)"/>
    </g>
   </g>
   <g id="legend_1">
    <g id="patch_7">
     <path d="M 41.240625 48.355469 
L 149.134375 48.355469 
Q 151.134375 48.355469 151.134375 46.355469 
L 151.134375 17.999219 
Q 151.134375 15.999219 149.134375 15.999219 
L 41.240625 15.999219 
Q 39.240625 15.999219 39.240625 17.999219 
L 39.240625 46.355469 
Q 39.240625 48.355469 41.240625 48.355469 
z
" style="fill: #ffffff; opacity: 0.8; stroke: #cccccc; stroke-linejoin: miter"/>
    </g>
    <g id="line2d_30">
     <path d="M 43.240625 24.097656 
L 53.240625 24.097656 
L 63.240625 24.097656 
" style="fill: none; stroke: #0000ff; stroke-width: 1.5; stroke-linecap: square"/>
    </g>
    <g id="text_18">
     <!-- $f(x) = x+1$ -->
     <g transform="translate(71.240625 27.597656) scale(0.1 -0.1)">
      <defs>
       <path id="DejaVuSans-Oblique-66" d="M 3059 4863 
L 2969 4384 
L 2419 4384 
Q 2106 4384 1964 4261 
Q 1822 4138 1753 3809 
L 1691 3500 
L 2638 3500 
L 2553 3053 
L 1606 3053 
L 1013 0 
L 434 0 
L 1031 3053 
L 481 3053 
L 563 3500 
L 1113 3500 
L 1159 3744 
Q 1278 4363 1576 4613 
Q 1875 4863 2516 4863 
L 3059 4863 
z
" transform="scale(0.015625)"/>
       <path id="DejaVuSans-2b" d="M 2944 4013 
L 2944 2272 
L 4684 2272 
L 4684 1741 
L 2944 1741 
L 2944 0 
L 2419 0 
L 2419 1741 
L 678 1741 
L 678 2272 
L 2419 2272 
L 2419 4013 
L 2944 4013 
z
" transform="scale(0.015625)"/>
      </defs>
      <use xlink:href="#DejaVuSans-Oblique-66" transform="translate(0 0.015625)"/>
      <use xlink:href="#DejaVuSans-28" transform="translate(35.205078 0.015625)"/>
      <use xlink:href="#DejaVuSans-Oblique-78" transform="translate(74.21875 0.015625)"/>
      <use xlink:href="#DejaVuSans-29" transform="translate(133.398438 0.015625)"/>
      <use xlink:href="#DejaVuSans-3d" transform="translate(191.894531 0.015625)"/>
      <use xlink:href="#DejaVuSans-Oblique-78" transform="translate(295.166016 0.015625)"/>
      <use xlink:href="#DejaVuSans-2b" transform="translate(373.828125 0.015625)"/>
      <use xlink:href="#DejaVuSans-31" transform="translate(477.099609 0.015625)"/>
     </g>
    </g>
    <g id="patch_8">
     <path d="M 43.240625 42.275781 
L 63.240625 42.275781 
L 63.240625 35.275781 
L 43.240625 35.275781 
z
" style="fill: #87ceeb; fill-opacity: 0.3; stroke: #87ceeb; stroke-opacity: 0.3; stroke-linejoin: miter"/>
    </g>
    <g id="text_19">
     <!-- Area under f(x) -->
     <g transform="translate(71.240625 42.275781) scale(0.1 -0.1)">
      <defs>
       <path id="DejaVuSans-41" d="M 2188 4044 
L 1331 1722 
L 3047 1722 
L 2188 4044 
z
M 1831 4666 
L 2547 4666 
L 4325 0 
L 3669 0 
L 3244 1197 
L 1141 1197 
L 716 0 
L 50 0 
L 1831 4666 
z
" transform="scale(0.015625)"/>
       <path id="DejaVuSans-72" d="M 2631 2963 
Q 2534 3019 2420 3045 
Q 2306 3072 2169 3072 
Q 1681 3072 1420 2755 
Q 1159 2438 1159 1844 
L 1159 0 
L 581 0 
L 581 3500 
L 1159 3500 
L 1159 2956 
Q 1341 3275 1631 3429 
Q 1922 3584 2338 3584 
Q 2397 3584 2469 3576 
Q 2541 3569 2628 3553 
L 2631 2963 
z
" transform="scale(0.015625)"/>
       <path id="DejaVuSans-65" d="M 3597 1894 
L 3597 1613 
L 953 1613 
Q 991 1019 1311 708 
Q 1631 397 2203 397 
Q 2534 397 2845 478 
Q 3156 559 3463 722 
L 3463 178 
Q 3153 47 2828 -22 
Q 2503 -91 2169 -91 
Q 1331 -91 842 396 
Q 353 884 353 1716 
Q 353 2575 817 3079 
Q 1281 3584 2069 3584 
Q 2775 3584 3186 3129 
Q 3597 2675 3597 1894 
z
M 3022 2063 
Q 3016 2534 2758 2815 
Q 2500 3097 2075 3097 
Q 1594 3097 1305 2825 
Q 1016 2553 972 2059 
L 3022 2063 
z
" transform="scale(0.015625)"/>
       <path id="DejaVuSans-61" d="M 2194 1759 
Q 1497 1759 1228 1600 
Q 959 1441 959 1056 
Q 959 750 1161 570 
Q 1363 391 1709 391 
Q 2188 391 2477 730 
Q 2766 1069 2766 1631 
L 2766 1759 
L 2194 1759 
z
M 3341 1997 
L 3341 0 
L 2766 0 
L 2766 531 
Q 2569 213 2275 61 
Q 1981 -91 1556 -91 
Q 1019 -91 701 211 
Q 384 513 384 1019 
Q 384 1609 779 1909 
Q 1175 2209 1959 2209 
L 2766 2209 
L 2766 2266 
Q 2766 2663 2505 2880 
Q 2244 3097 1772 3097 
Q 1472 3097 1187 3025 
Q 903 2953 641 2809 
L 641 3341 
Q 956 3463 1253 3523 
Q 1550 3584 1831 3584 
Q 2591 3584 2966 3190 
Q 3341 2797 3341 1997 
z
" transform="scale(0.015625)"/>
       <path id="DejaVuSans-20" transform="scale(0.015625)"/>
       <path id="DejaVuSans-75" d="M 544 1381 
L 544 3500 
L 1119 3500 
L 1119 1403 
Q 1119 906 1312 657 
Q 1506 409 1894 409 
Q 2359 409 2629 706 
Q 2900 1003 2900 1516 
L 2900 3500 
L 3475 3500 
L 3475 0 
L 2900 0 
L 2900 538 
Q 2691 219 2414 64 
Q 2138 -91 1772 -91 
Q 1169 -91 856 284 
Q 544 659 544 1381 
z
M 1991 3584 
L 1991 3584 
z
" transform="scale(0.015625)"/>
       <path id="DejaVuSans-6e" d="M 3513 2113 
L 3513 0 
L 2938 0 
L 2938 2094 
Q 2938 2591 2744 2837 
Q 2550 3084 2163 3084 
Q 1697 3084 1428 2787 
Q 1159 2491 1159 1978 
L 1159 0 
L 581 0 
L 581 3500 
L 1159 3500 
L 1159 2956 
Q 1366 3272 1645 3428 
Q 1925 3584 2291 3584 
Q 2894 3584 3203 3211 
Q 3513 2838 3513 2113 
z
" transform="scale(0.015625)"/>
       <path id="DejaVuSans-64" d="M 2906 2969 
L 2906 4863 
L 3481 4863 
L 3481 0 
L 2906 0 
L 2906 525 
Q 2725 213 2448 61 
Q 2172 -91 1784 -91 
Q 1150 -91 751 415 
Q 353 922 353 1747 
Q 353 2572 751 3078 
Q 1150 3584 1784 3584 
Q 2172 3584 2448 3432 
Q 2725 3281 2906 2969 
z
M 947 1747 
Q 947 1113 1208 752 
Q 1469 391 1925 391 
Q 2381 391 2643 752 
Q 2906 1113 2906 1747 
Q 2906 2381 2643 2742 
Q 2381 3103 1925 3103 
Q 1469 3103 1208 2742 
Q 947 2381 947 1747 
z
" transform="scale(0.015625)"/>
      </defs>
      <use xlink:href="#DejaVuSans-41"/>
      <use xlink:href="#DejaVuSans-72" transform="translate(68.408203 0)"/>
      <use xlink:href="#DejaVuSans-65" transform="translate(107.271484 0)"/>
      <use xlink:href="#DejaVuSans-61" transform="translate(168.794922 0)"/>
      <use xlink:href="#DejaVuSans-20" transform="translate(230.074219 0)"/>
      <use xlink:href="#DejaVuSans-75" transform="translate(261.861328 0)"/>
      <use xlink:href="#DejaVuSans-6e" transform="translate(325.240234 0)"/>
      <use xlink:href="#DejaVuSans-64" transform="translate(388.619141 0)"/>
      <use xlink:href="#DejaVuSans-65" transform="translate(452.095703 0)"/>
      <use xlink:href="#DejaVuSans-72" transform="translate(513.619141 0)"/>
      <use xlink:href="#DejaVuSans-20" transform="translate(554.732422 0)"/>
      <use xlink:href="#DejaVuSans-66" transform="translate(586.519531 0)"/>
      <use xlink:href="#DejaVuSans-28" transform="translate(621.724609 0)"/>
      <use xlink:href="#DejaVuSans-78" transform="translate(660.738281 0)"/>
      <use xlink:href="#DejaVuSans-29" transform="translate(719.917969 0)"/>
     </g>
    </g>
   </g>
  </g>
 </g>
 <defs>
  <clipPath id="p5ce2f78a34">
   <rect x="34.240625" y="10.999219" width="357.12" height="266.112"/>
  </clipPath>
 </defs>
</svg>
